<svg xmlns="http://www.w3.org/2000/svg" xmlns:xlink="http://www.w3.org/1999/xlink" xmlns:lucid="lucid" width="1042" height="1231"><g transform="translate(-40 -220)" lucid:page-tab-id="0_0"><path d="M140 1050h240v60H140z" fill="none"/><use xlink:href="#a" transform="matrix(1,0,0,1,140,1050) translate(49.425 33.6)"/><use xlink:href="#b" transform="matrix(1,0,0,1,140,1050) translate(94.425 33.6)"/><use xlink:href="#c" transform="matrix(1,0,0,1,140,1050) translate(142.375 33.6)"/><path d="M132 550h240v60H132z" fill="none"/><use xlink:href="#d" transform="matrix(1,0,0,1,132,550) translate(41.599999999999994 22.799999999999997)"/><use xlink:href="#e" transform="matrix(1,0,0,1,132,550) translate(128.5 22.799999999999997)"/><use xlink:href="#f" transform="matrix(1,0,0,1,132,550) translate(97.025 44.4)"/><path d="M132 1150h240v60H132z" fill="none"/><use xlink:href="#g" transform="matrix(1,0,0,1,132,1150) translate(61.1 22.799999999999997)"/><use xlink:href="#h" transform="matrix(1,0,0,1,132,1150) translate(99.05000000000001 22.799999999999997)"/><use xlink:href="#i" transform="matrix(1,0,0,1,132,1150) translate(89.575 44.4)"/><path d="M738 460h240v60H738z" fill="none"/><use xlink:href="#g" transform="matrix(1,0,0,1,738,460) translate(60.599999999999994 33.6)"/><use xlink:href="#j" transform="matrix(1,0,0,1,738,460) translate(98.55 33.6)"/><path d="M280 240h160v80H280z" stroke="#989898" stroke-width="2" fill="#cbcbcb"/><use xlink:href="#k" transform="matrix(1,0,0,1,280,240) translate(29.604999999999997 31.9)"/><use xlink:href="#l" transform="matrix(1,0,0,1,280,240) translate(73.505 31.9)"/><use xlink:href="#m" transform="matrix(1,0,0,1,280,240) translate(5.104999999999999 53.5)"/><use xlink:href="#n" transform="matrix(1,0,0,1,280,240) translate(97.95500000000001 53.5)"/><path d="M360 321v1119" fill="none"/><path d="M360 321v19.63m0 19.63v39.27m0 19.63v39.26m0 19.63v39.27m0 19.63v39.26m0 19.64v39.27m0 19.64V694m0 19.63v39.26m0 19.63v39.26m0 19.62v39.26m0 19.64v39.26m0 19.63v39.27m0 19.64v39.27m0 19.63v39.26m0 19.63v39.26m0 19.63v39.25m0 19.63v39.27m0 19.63v39.26m0 19.63v39.27m0 19.63V1440" stroke="#969696" stroke-width="2" fill="none"/><path d="M361 321h-2v-1h2z" fill="#969696"/><path d="M680 240h160v80H680z" stroke="#989898" stroke-width="2" fill="#cbcbcb"/><use xlink:href="#o" transform="matrix(1,0,0,1,680,240) translate(9.130000000000004 31.9)"/><use xlink:href="#l" transform="matrix(1,0,0,1,680,240) translate(93.98 31.9)"/><use xlink:href="#p" transform="matrix(1,0,0,1,680,240) translate(15.804999999999987 53.5)"/><use xlink:href="#n" transform="matrix(1,0,0,1,680,240) translate(87.255 53.5)"/><path d="M760 321v1119" fill="none"/><path d="M760 321v19.63m0 19.63v39.27m0 19.63v39.26m0 19.63v39.27m0 19.63v39.26m0 19.64v39.27m0 19.64V694m0 19.63v39.26m0 19.63v39.26m0 19.62v39.26m0 19.64v39.26m0 19.63v39.27m0 19.64v39.27m0 19.63v39.26m0 19.63v39.26m0 19.63v39.25m0 19.63v39.27m0 19.63v39.26m0 19.63v39.27m0 19.63V1440" stroke="#969696" stroke-width="2" fill="none"/><path d="M761 321h-2v-1h2z" fill="#969696"/><path d="M1060 400c0 11.05-8.95 20-20 20s-20-8.95-20-20 8.95-20 20-20 20 8.95 20 20z" stroke="#989898" stroke-width="2"/><path d="M1019 400l-236.93-1" stroke="#969696" stroke-width="2" fill="none"/><path d="M1020.12 399l-.12 1 .04 1H1019v-2zM800.8 389.26l-16.67 9.76 16.58 9.9-1.02 1.7L780.2 399l19.58-11.47z" fill="#969696"/><use xlink:href="#q" transform="matrix(1,0,0,1,832.3964431794395,373.90349991982123) translate(0 14.4)"/><use xlink:href="#r" transform="matrix(1,0,0,1,832.3964431794395,373.90349991982123) translate(87.85000000000001 14.4)"/><path d="M780 580h237.13" fill="none"/><path d="M780 580h3.95m7.9 0h7.9m7.92 0h7.9m7.9 0h7.9m7.9 0H847.2m7.9 0h7.9m7.9 0h7.9m7.9 0h7.9m7.92 0h7.9m7.9 0h7.9m7.92 0h7.9m7.9 0h7.9m7.9 0h7.92m7.9 0h7.9m7.9 0h7.92m7.9 0h3.95" stroke="#969696" stroke-width="2" fill="none"/><path fill="#969696"/><path d="M998.96 590.7l18.07-10.7-18.07-10.7" stroke="#969696" stroke-width="2" fill="none"/><use xlink:href="#s" transform="matrix(1,0,0,1,843.7496881460886,583.9999999999999) translate(0 14.4)"/><use xlink:href="#t" transform="matrix(1,0,0,1,843.7496881460886,583.9999999999999) translate(53.550000000000004 14.4)"/><path d="M740 400h40v200h-40z" stroke="#989898" stroke-width="2" fill="#cbcbcb"/><path d="M740 600H561.87M580.04 589.3L561.96 600l18.08 10.7" stroke="#969696" stroke-width="2" fill="none"/><use xlink:href="#u" transform="matrix(1,0,0,1,601.925,604.0000000000001) translate(0 14.4)"/><use xlink:href="#v" transform="matrix(1,0,0,1,601.925,604.0000000000001) translate(47.95 14.4)"/><path d="M460 500h160v40H460z" stroke="#989898" stroke-width="2" fill="#cbcbcb"/><use xlink:href="#w" transform="matrix(1,0,0,1,460,500) translate(23.529999999999994 24.4)"/><use xlink:href="#x" transform="matrix(1,0,0,1,460,500) translate(94.48 24.4)"/><path d="M540 541v578" fill="none"/><path d="M540 541v19.27m0 19.26v38.54m0 19.26v38.54m0 19.26v38.54m0 19.26v38.54m0 19.26v38.54m0 19.26v38.54m0 19.26v38.54m0 19.26v38.54m0 19.26v38.54m0 19.26V1119" stroke="#969696" stroke-width="2" fill="none"/><path d="M541 541h-2v-1h2zM541 1120.13l-1-.13-1 .04V1119h2z" fill="#969696"/><path d="M738 760h240v60H738z" fill="none"/><use xlink:href="#g" transform="matrix(1,0,0,1,738,760) translate(60.599999999999994 33.6)"/><use xlink:href="#j" transform="matrix(1,0,0,1,738,760) translate(98.55 33.6)"/><path d="M1062 700c0 11.05-8.95 20-20 20s-20-8.95-20-20 8.95-20 20-20 20 8.95 20 20z" stroke="#989898" stroke-width="2"/><path d="M1021 700l-240.93-1" stroke="#969696" stroke-width="2" fill="none"/><path d="M1022.12 699l-.12 1 .04 1H1021v-2zM798.8 689.26l-16.67 9.76 16.58 9.9-1.02 1.7L778.2 699l19.58-11.47z" fill="#969696"/><use xlink:href="#q" transform="matrix(1,0,0,1,832.3689145441358,673.9033855900667) translate(0 14.4)"/><use xlink:href="#r" transform="matrix(1,0,0,1,832.3689145441358,673.9033855900667) translate(87.85000000000001 14.4)"/><path d="M772 880h247.13" fill="none"/><path d="M772 880h4.12m8.24 0h8.23m8.23 0h8.24m8.24 0h8.25m8.23 0h8.24m8.24 0h8.24m8.23 0h8.24m8.24 0h8.25m8.24 0h8.22m8.24 0h8.24m8.24 0h8.23m8.24 0h8.25m8.24 0h8.23m8.23 0h8.24m8.24 0h8.24m8.23 0h4.13M1000.96 890.7l18.07-10.7-18.07-10.7" stroke="#969696" stroke-width="2" fill="none"/><use xlink:href="#s" transform="matrix(1,0,0,1,840.7496881460886,884.0000000000001) translate(0 14.4)"/><use xlink:href="#t" transform="matrix(1,0,0,1,840.7496881460886,884.0000000000001) translate(53.550000000000004 14.4)"/><path d="M738 700h40v200h-40z" stroke="#989898" stroke-width="2" fill="#cbcbcb"/><path d="M740 900H561.87M580.04 889.3L561.96 900l18.08 10.7" stroke="#969696" stroke-width="2" fill="none"/><use xlink:href="#u" transform="matrix(1,0,0,1,601.925,904) translate(0 14.4)"/><use xlink:href="#v" transform="matrix(1,0,0,1,601.925,904) translate(47.95 14.4)"/><path d="M342 380h40v460h-40zM340 1040h40v80h-40z" stroke="#989898" stroke-width="2" fill="#cbcbcb"/><path d="M381 1051.54l157.13-2.16" stroke="#969696" stroke-width="2" fill="none"/><path d="M381 1052.54l-1 .02v-2l1-.02z" fill="#969696"/><path d="M520.1 1060.32l17.94-10.94-18.23-10.44" stroke="#969696" stroke-width="2" fill="none"/><use xlink:href="#y" transform="matrix(1,0,0,1,439.7698356117213,1024.8530869126052) translate(0 14.4)"/><path d="M560 1140c0 11.05-8.95 20-20 20s-20-8.95-20-20 8.95-20 20-20 20 8.95 20 20z" stroke="#989898" stroke-width="2" fill="#cbcbcb"/><path d="M525.86 1125.86l28.28 28.28m0-28.28l-28.28 28.28" stroke="#989898" stroke-width="2" fill="none"/><path d="M520 600h40v30h-40zM520 900h40v30h-40z" stroke="#989898" stroke-width="2" fill="#cbcbcb"/><path d="M540 1096.14h-20v1.05H382.87" fill="none"/><path d="M540 1096.14h-3.95m-7.9 0h-7.92m-6.86 1.05h-7.9m-7.92 0h-7.9m-7.92 0h-7.9m-7.92 0H458m-7.9 0h-7.9m-7.92 0h-7.9m-7.92 0h-7.9m-7.92 0h-7.9m-7.92 0h-3.95M401.04 1086.5l-18.08 10.7 18.08 10.68" stroke="#969696" stroke-width="2" fill="none"/><use xlink:href="#u" transform="matrix(1,0,0,1,412.4536388600513,1101.1872466455118) translate(0 14.4)"/><use xlink:href="#v" transform="matrix(1,0,0,1,412.4536388600513,1101.1872466455118) translate(47.95 14.4)"/><path d="M100 960c0 11.05-8.95 20-20 20s-20-8.95-20-20 8.95-20 20-20 20 8.95 20 20z" stroke="#989898" stroke-width="2"/><path d="M101 960l257.13.6" stroke="#969696" stroke-width="2" fill="none"/><path d="M101 959v2h-1.12l.12-1-.04-1z" fill="#969696"/><path d="M339.93 971.26l18.1-10.65L340 949.9" stroke="#969696" stroke-width="2" fill="none"/><use xlink:href="#q" transform="matrix(1,0,0,1,162.57721415270512,934.7098696427727) translate(0 14.4)"/><use xlink:href="#r" transform="matrix(1,0,0,1,162.57721415270512,934.7098696427727) translate(87.85000000000001 14.4)"/><path d="M340 1140h40v80h-40zM340 1240h40v80h-40z" stroke="#989898" stroke-width="2" fill="#cbcbcb"/><path d="M148 1250h208v60H148z" fill="none"/><g><use xlink:href="#z" transform="matrix(1,0,0,1,148,1250) translate(44.074999999999996 22.799999999999997)"/><use xlink:href="#e" transform="matrix(1,0,0,1,148,1250) translate(94.025 22.799999999999997)"/><use xlink:href="#f" transform="matrix(1,0,0,1,148,1250) translate(81.025 44.4)"/></g><path d="M120 990h185v20l-10 10H120z" fill="#fff"/><path d="M120 990h460v350H120z" stroke="#989898" stroke-width="2" fill="none"/><path d="M305 990v20l-10 10H120" stroke="#989898" stroke-width="2" fill="#fff"/><g><use xlink:href="#d" transform="matrix(1,0,0,1,128,990) translate(0 18.6)"/><use xlink:href="#A" transform="matrix(1,0,0,1,128,990) translate(86.9 18.6)"/></g><path d="M100 1380c0 11.05-8.95 20-20 20s-20-8.95-20-20 8.95-20 20-20 20 8.95 20 20z" stroke="#989898" stroke-width="2" fill="#cbcbcb"/><path d="M92 1380c0 6.63-5.37 12-12 12s-12-5.37-12-12 5.37-12 12-12 12 5.37 12 12z" stroke="#989898" stroke-width="2"/><path d="M360 1381.02H230.46v-.28H102.78" fill="none"/><path d="M360 1381.02h-4.02m-8.05 0h-8.05m-8.04 0h-8.05m-8.06 0h-8.04m-8.05 0h-8.05m-8.05 0h-8.04m-8.04 0h-8.05m-8.03 0h-8.05m-8.05 0h-4.8v-.28h-2.96m-8.04 0h-8.05m-8.03 0h-8.05m-8.05 0h-8.04m-8.05 0h-8.05m-8.04 0h-8.06m-8.05 0h-8.05m-8.05 0h-8.05m-8.05 0h-4.02M120.95 1370.05l-18.07 10.7 18.07 10.68" stroke="#969696" stroke-width="2" fill="none"/><g><use xlink:href="#s" transform="matrix(1,0,0,1,174.71408756457345,1355.1442330195127) translate(0 14.4)"/><use xlink:href="#t" transform="matrix(1,0,0,1,174.71408756457345,1355.1442330195127) translate(53.550000000000004 14.4)"/></g><path d="M1062 880c0 11.05-8.95 20-20 20s-20-8.95-20-20 8.95-20 20-20 20 8.95 20 20z" stroke="#989898" stroke-width="2" fill="#cbcbcb"/><path d="M1054 880c0 6.63-5.37 12-12 12s-12-5.37-12-12 5.37-12 12-12 12 5.37 12 12z" stroke="#989898" stroke-width="2"/><path d="M1060 580c0 11.05-8.95 20-20 20s-20-8.95-20-20 8.95-20 20-20 20 8.95 20 20z" stroke="#989898" stroke-width="2" fill="#cbcbcb"/><path d="M1052 580c0 6.63-5.37 12-12 12s-12-5.37-12-12 5.37-12 12-12 12 5.37 12 12z" stroke="#989898" stroke-width="2"/><path d="M798 1085h230l32 32v128H798z" stroke="#d9be60" stroke-width="2" fill="#ffdf71"/><path d="M1028 1085v32h32" fill="#d9be60"/><g><use xlink:href="#B" transform="matrix(1,0,0,1,803,1090) translate(6 26.111111111111107)"/><use xlink:href="#C" transform="matrix(1,0,0,1,803,1090) translate(110.75308641975309 26.111111111111107)"/><use xlink:href="#D" transform="matrix(1,0,0,1,803,1090) translate(187.17283950617283 26.111111111111107)"/><use xlink:href="#E" transform="matrix(1,0,0,1,803,1090) translate(6 52.77777777777778)"/><use xlink:href="#F" transform="matrix(1,0,0,1,803,1090) translate(92.35802469135803 52.77777777777778)"/><use xlink:href="#G" transform="matrix(1,0,0,1,803,1090) translate(6 79.44444444444444)"/><use xlink:href="#H" transform="matrix(1,0,0,1,803,1090) translate(108.28395061728395 79.44444444444444)"/><use xlink:href="#I" transform="matrix(1,0,0,1,803,1090) translate(171.12345679012344 79.44444444444444)"/><use xlink:href="#J" transform="matrix(1,0,0,1,803,1090) translate(6 106.11111111111111)"/><use xlink:href="#K" transform="matrix(1,0,0,1,803,1090) translate(62.60493827160494 106.11111111111111)"/><use xlink:href="#L" transform="matrix(1,0,0,1,803,1090) translate(116.80246913580247 106.11111111111111)"/><use xlink:href="#M" transform="matrix(1,0,0,1,803,1090) translate(185.87654320987653 106.11111111111111)"/><use xlink:href="#N" transform="matrix(1,0,0,1,803,1090) translate(6 132.77777777777777)"/></g><defs><path fill="#5a5a5a" d="M185-189c-5-48-123-54-124 2 14 75 158 14 163 119 3 78-121 87-175 55-17-10-28-26-33-46l33-7c5 56 141 63 141-1 0-78-155-14-162-118-5-82 145-84 179-34 5 7 8 16 11 25" id="O"/><path fill="#5a5a5a" d="M179-190L93 31C79 59 56 82 12 73V49c39 6 53-20 64-50L1-190h34L92-34l54-156h33" id="P"/><path fill="#5a5a5a" d="M117-194c89-4 53 116 60 194h-32v-121c0-31-8-49-39-48C34-167 62-67 57 0H25l-1-190h30c1 10-1 24 2 32 11-22 29-35 61-36" id="Q"/><path fill="#5a5a5a" d="M96-169c-40 0-48 33-48 73s9 75 48 75c24 0 41-14 43-38l32 2c-6 37-31 61-74 61-59 0-76-41-82-99-10-93 101-131 147-64 4 7 5 14 7 22l-32 3c-4-21-16-35-41-35" id="R"/><g id="a"><use transform="matrix(0.05,0,0,0.05,0,0)" xlink:href="#O"/><use transform="matrix(0.05,0,0,0.05,12,0)" xlink:href="#P"/><use transform="matrix(0.05,0,0,0.05,21,0)" xlink:href="#Q"/><use transform="matrix(0.05,0,0,0.05,31,0)" xlink:href="#R"/></g><path fill="#5a5a5a" d="M30 0v-248h33v221h125V0H30" id="S"/><path fill="#5a5a5a" d="M100-194c62-1 85 37 85 99 1 63-27 99-86 99S16-35 15-95c0-66 28-99 85-99zM99-20c44 1 53-31 53-75 0-43-8-75-51-75s-53 32-53 75 10 74 51 75" id="T"/><path fill="#5a5a5a" d="M141-36C126-15 110 5 73 4 37 3 15-17 15-53c-1-64 63-63 125-63 3-35-9-54-41-54-24 1-41 7-42 31l-33-3c5-37 33-52 76-52 45 0 72 20 72 64v82c-1 20 7 32 28 27v20c-31 9-61-2-59-35zM48-53c0 20 12 33 32 33 41-3 63-29 60-74-43 2-92-5-92 41" id="U"/><path fill="#5a5a5a" d="M24 0v-261h32V0H24" id="V"/><g id="b"><use transform="matrix(0.05,0,0,0.05,0,0)" xlink:href="#S"/><use transform="matrix(0.05,0,0,0.05,10,0)" xlink:href="#T"/><use transform="matrix(0.05,0,0,0.05,20,0)" xlink:href="#R"/><use transform="matrix(0.05,0,0,0.05,29,0)" xlink:href="#U"/><use transform="matrix(0.05,0,0,0.05,39,0)" xlink:href="#V"/></g><path fill="#5a5a5a" d="M127-220V0H93v-220H8v-28h204v28h-85" id="W"/><path fill="#5a5a5a" d="M24-231v-30h32v30H24zM24 0v-190h32V0H24" id="X"/><path fill="#5a5a5a" d="M210-169c-67 3-38 105-44 169h-31v-121c0-29-5-50-35-48C34-165 62-65 56 0H25l-1-190h30c1 10-1 24 2 32 10-44 99-50 107 0 11-21 27-35 58-36 85-2 47 119 55 194h-31v-121c0-29-5-49-35-48" id="Y"/><path fill="#5a5a5a" d="M100-194c63 0 86 42 84 106H49c0 40 14 67 53 68 26 1 43-12 49-29l28 8c-11 28-37 45-77 45C44 4 14-33 15-96c1-61 26-98 85-98zm52 81c6-60-76-77-97-28-3 7-6 17-6 28h103" id="Z"/><path fill="#5a5a5a" d="M135-143c-3-34-86-38-87 0 15 53 115 12 119 90S17 21 10-45l28-5c4 36 97 45 98 0-10-56-113-15-118-90-4-57 82-63 122-42 12 7 21 19 24 35" id="aa"/><g id="c"><use transform="matrix(0.05,0,0,0.05,0,0)" xlink:href="#W"/><use transform="matrix(0.05,0,0,0.05,10.3,0)" xlink:href="#X"/><use transform="matrix(0.05,0,0,0.05,14.25,0)" xlink:href="#Y"/><use transform="matrix(0.05,0,0,0.05,29.200000000000003,0)" xlink:href="#Z"/><use transform="matrix(0.05,0,0,0.05,39.2,0)" xlink:href="#aa"/></g><path fill="#5a5a5a" d="M30-248c118-7 216 8 213 122C240-48 200 0 122 0H30v-248zM63-27c89 8 146-16 146-99s-60-101-146-95v194" id="ab"/><path fill="#5a5a5a" d="M84 4C-5 8 30-112 23-190h32v120c0 31 7 50 39 49 72-2 45-101 50-169h31l1 190h-30c-1-10 1-25-2-33-11 22-28 36-60 37" id="ac"/><path fill="#5a5a5a" d="M59-47c-2 24 18 29 38 22v24C64 9 27 4 27-40v-127H5v-23h24l9-43h21v43h35v23H59v120" id="ad"/><g id="d"><use transform="matrix(0.05,0,0,0.05,0,0)" xlink:href="#ab"/><use transform="matrix(0.05,0,0,0.05,12.950000000000001,0)" xlink:href="#T"/><use transform="matrix(0.05,0,0,0.05,22.950000000000003,0)" xlink:href="#R"/><use transform="matrix(0.05,0,0,0.05,31.950000000000003,0)" xlink:href="#ac"/><use transform="matrix(0.05,0,0,0.05,41.95,0)" xlink:href="#Y"/><use transform="matrix(0.05,0,0,0.05,56.900000000000006,0)" xlink:href="#Z"/><use transform="matrix(0.05,0,0,0.05,66.9,0)" xlink:href="#Q"/><use transform="matrix(0.05,0,0,0.05,76.9,0)" xlink:href="#ad"/></g><path fill="#5a5a5a" d="M101-234c-31-9-42 10-38 44h38v23H63V0H32v-167H5v-23h27c-7-52 17-82 69-68v24" id="ae"/><g id="e"><use transform="matrix(0.05,0,0,0.05,0,0)" xlink:href="#S"/><use transform="matrix(0.05,0,0,0.05,10,0)" xlink:href="#X"/><use transform="matrix(0.05,0,0,0.05,13.949999999999998,0)" xlink:href="#ae"/><use transform="matrix(0.05,0,0,0.05,18.95,0)" xlink:href="#Z"/><use transform="matrix(0.05,0,0,0.05,28.950000000000003,0)" xlink:href="#R"/><use transform="matrix(0.05,0,0,0.05,37.95,0)" xlink:href="#P"/><use transform="matrix(0.05,0,0,0.05,46.95,0)" xlink:href="#R"/><use transform="matrix(0.05,0,0,0.05,55.95,0)" xlink:href="#V"/><use transform="matrix(0.05,0,0,0.05,59.900000000000006,0)" xlink:href="#Z"/></g><path fill="#5a5a5a" d="M143 0L79-87 56-68V0H24v-261h32v163l83-92h37l-77 82L181 0h-38" id="af"/><g id="f"><use transform="matrix(0.05,0,0,0.05,0,0)" xlink:href="#W"/><use transform="matrix(0.05,0,0,0.05,8.950000000000001,0)" xlink:href="#U"/><use transform="matrix(0.05,0,0,0.05,18.950000000000003,0)" xlink:href="#aa"/><use transform="matrix(0.05,0,0,0.05,27.950000000000003,0)" xlink:href="#af"/><use transform="matrix(0.05,0,0,0.05,36.95,0)" xlink:href="#aa"/></g><path fill="#5a5a5a" d="M233-177c-1 41-23 64-60 70L243 0h-38l-65-103H63V0H30v-248c88 3 205-21 203 71zM63-129c60-2 137 13 137-47 0-61-80-42-137-45v92" id="ag"/><g id="g"><use transform="matrix(0.05,0,0,0.05,0,0)" xlink:href="#ag"/><use transform="matrix(0.05,0,0,0.05,12.950000000000001,0)" xlink:href="#ac"/><use transform="matrix(0.05,0,0,0.05,22.950000000000003,0)" xlink:href="#Q"/></g><path fill="#5a5a5a" d="M205 0l-28-72H64L36 0H1l101-248h38L239 0h-34zm-38-99l-47-123c-12 45-31 82-46 123h93" id="ah"/><g id="h"><use transform="matrix(0.05,0,0,0.05,0,0)" xlink:href="#ah"/><use transform="matrix(0.05,0,0,0.05,12,0)" xlink:href="#Q"/><use transform="matrix(0.05,0,0,0.05,22,0)" xlink:href="#X"/><use transform="matrix(0.05,0,0,0.05,25.950000000000003,0)" xlink:href="#Y"/><use transform="matrix(0.05,0,0,0.05,40.9,0)" xlink:href="#U"/><use transform="matrix(0.05,0,0,0.05,50.9,0)" xlink:href="#ad"/><use transform="matrix(0.05,0,0,0.05,55.900000000000006,0)" xlink:href="#X"/><use transform="matrix(0.05,0,0,0.05,59.85,0)" xlink:href="#T"/><use transform="matrix(0.05,0,0,0.05,69.85,0)" xlink:href="#Q"/></g><path fill="#5a5a5a" d="M63-220v92h138v28H63V0H30v-248h175v28H63" id="ai"/><path fill="#5a5a5a" d="M114-163C36-179 61-72 57 0H25l-1-190h30c1 12-1 29 2 39 6-27 23-49 58-41v29" id="aj"/><g id="i"><use transform="matrix(0.05,0,0,0.05,0,0)" xlink:href="#ai"/><use transform="matrix(0.05,0,0,0.05,10.950000000000001,0)" xlink:href="#aj"/><use transform="matrix(0.05,0,0,0.05,16.900000000000002,0)" xlink:href="#U"/><use transform="matrix(0.05,0,0,0.05,26.900000000000002,0)" xlink:href="#Y"/><use transform="matrix(0.05,0,0,0.05,41.85,0)" xlink:href="#Z"/><use transform="matrix(0.05,0,0,0.05,51.85,0)" xlink:href="#aa"/></g><g id="j"><use transform="matrix(0.05,0,0,0.05,0,0)" xlink:href="#ah"/><use transform="matrix(0.05,0,0,0.05,12,0)" xlink:href="#Q"/><use transform="matrix(0.05,0,0,0.05,22,0)" xlink:href="#X"/><use transform="matrix(0.05,0,0,0.05,25.950000000000003,0)" xlink:href="#Y"/><use transform="matrix(0.05,0,0,0.05,40.9,0)" xlink:href="#U"/><use transform="matrix(0.05,0,0,0.05,50.9,0)" xlink:href="#ad"/><use transform="matrix(0.05,0,0,0.05,55.900000000000006,0)" xlink:href="#T"/><use transform="matrix(0.05,0,0,0.05,65.9,0)" xlink:href="#aj"/><use transform="matrix(0.05,0,0,0.05,71.85000000000001,0)" xlink:href="#aa"/></g><path fill="#5a5a5a" d="M240 0l2-218c-23 76-54 145-80 218h-23L58-218 59 0H30v-248h44l77 211c21-75 51-140 76-211h43V0h-30" id="ak"/><g id="k"><use transform="matrix(0.05,0,0,0.05,0,0)" xlink:href="#ak"/><use transform="matrix(0.05,0,0,0.05,14.950000000000001,0)" xlink:href="#U"/><use transform="matrix(0.05,0,0,0.05,24.950000000000003,0)" xlink:href="#X"/><use transform="matrix(0.05,0,0,0.05,28.900000000000002,0)" xlink:href="#Q"/></g><path fill="#5a5a5a" d="M106-169C34-169 62-67 57 0H25v-261h32l-1 103c12-21 28-36 61-36 89 0 53 116 60 194h-32v-121c2-32-8-49-39-48" id="al"/><path fill="#5a5a5a" d="M85-194c31 0 48 13 60 33l-1-100h32l1 261h-30c-2-10 0-23-3-31C134-8 116 4 85 4 32 4 16-35 15-94c0-66 23-100 70-100zm9 24c-40 0-46 34-46 75 0 40 6 74 45 74 42 0 51-32 51-76 0-42-9-74-50-73" id="am"/><g id="l"><use transform="matrix(0.05,0,0,0.05,0,0)" xlink:href="#W"/><use transform="matrix(0.05,0,0,0.05,10.950000000000001,0)" xlink:href="#al"/><use transform="matrix(0.05,0,0,0.05,20.950000000000003,0)" xlink:href="#aj"/><use transform="matrix(0.05,0,0,0.05,26.900000000000002,0)" xlink:href="#Z"/><use transform="matrix(0.05,0,0,0.05,36.900000000000006,0)" xlink:href="#U"/><use transform="matrix(0.05,0,0,0.05,46.900000000000006,0)" xlink:href="#am"/></g><path fill="#5a5a5a" d="M87 75C49 33 22-17 22-94c0-76 28-126 65-167h31c-38 41-64 92-64 168S80 34 118 75H87" id="an"/><g id="m"><use transform="matrix(0.05,0,0,0.05,0,0)" xlink:href="#an"/><use transform="matrix(0.05,0,0,0.05,5.95,0)" xlink:href="#ab"/><use transform="matrix(0.05,0,0,0.05,18.900000000000002,0)" xlink:href="#T"/><use transform="matrix(0.05,0,0,0.05,28.900000000000002,0)" xlink:href="#R"/><use transform="matrix(0.05,0,0,0.05,37.900000000000006,0)" xlink:href="#ac"/><use transform="matrix(0.05,0,0,0.05,47.900000000000006,0)" xlink:href="#Y"/><use transform="matrix(0.05,0,0,0.05,62.85,0)" xlink:href="#Z"/><use transform="matrix(0.05,0,0,0.05,72.85000000000001,0)" xlink:href="#Q"/><use transform="matrix(0.05,0,0,0.05,82.85000000000001,0)" xlink:href="#ad"/></g><path fill="#5a5a5a" d="M115-194c55 1 70 41 70 98S169 2 115 4C84 4 66-9 55-30l1 105H24l-1-265h31l2 30c10-21 28-34 59-34zm-8 174c40 0 45-34 45-75s-6-73-45-74c-42 0-51 32-51 76 0 43 10 73 51 73" id="ao"/><path fill="#5a5a5a" d="M33-261c38 41 65 92 65 168S71 34 33 75H2C39 34 66-17 66-93S39-220 2-261h31" id="ap"/><g id="n"><use transform="matrix(0.05,0,0,0.05,0,0)" xlink:href="#O"/><use transform="matrix(0.05,0,0,0.05,12,0)" xlink:href="#R"/><use transform="matrix(0.05,0,0,0.05,21,0)" xlink:href="#T"/><use transform="matrix(0.05,0,0,0.05,31,0)" xlink:href="#ao"/><use transform="matrix(0.05,0,0,0.05,41,0)" xlink:href="#Z"/><use transform="matrix(0.05,0,0,0.05,51,0)" xlink:href="#ap"/></g><g id="o"><use transform="matrix(0.05,0,0,0.05,0,0)" xlink:href="#ah"/><use transform="matrix(0.05,0,0,0.05,12,0)" xlink:href="#Q"/><use transform="matrix(0.05,0,0,0.05,22,0)" xlink:href="#X"/><use transform="matrix(0.05,0,0,0.05,25.950000000000003,0)" xlink:href="#Y"/><use transform="matrix(0.05,0,0,0.05,40.9,0)" xlink:href="#U"/><use transform="matrix(0.05,0,0,0.05,50.9,0)" xlink:href="#ad"/><use transform="matrix(0.05,0,0,0.05,55.900000000000006,0)" xlink:href="#X"/><use transform="matrix(0.05,0,0,0.05,59.85,0)" xlink:href="#T"/><use transform="matrix(0.05,0,0,0.05,69.85,0)" xlink:href="#Q"/></g><path fill="#5a5a5a" d="M266 0h-40l-56-210L115 0H75L2-248h35L96-30l15-64 43-154h32l59 218 59-218h35" id="aq"/><g id="p"><use transform="matrix(0.05,0,0,0.05,0,0)" xlink:href="#an"/><use transform="matrix(0.05,0,0,0.05,5.95,0)" xlink:href="#aq"/><use transform="matrix(0.05,0,0,0.05,22.55,0)" xlink:href="#T"/><use transform="matrix(0.05,0,0,0.05,32.55,0)" xlink:href="#aj"/><use transform="matrix(0.05,0,0,0.05,38.5,0)" xlink:href="#af"/><use transform="matrix(0.05,0,0,0.05,47.5,0)" xlink:href="#V"/><use transform="matrix(0.05,0,0,0.05,51.45,0)" xlink:href="#Z"/><use transform="matrix(0.05,0,0,0.05,61.45,0)" xlink:href="#ad"/></g><path fill="#5a5a5a" d="M177-190C167-65 218 103 67 71c-23-6-38-20-44-43l32-5c15 47 100 32 89-28v-30C133-14 115 1 83 1 29 1 15-40 15-95c0-56 16-97 71-98 29-1 48 16 59 35 1-10 0-23 2-32h30zM94-22c36 0 50-32 50-73 0-42-14-75-50-75-39 0-46 34-46 75s6 73 46 73" id="ar"/><g id="q"><use transform="matrix(0.05,0,0,0.05,0,0)" xlink:href="#ag"/><use transform="matrix(0.05,0,0,0.05,12.950000000000001,0)" xlink:href="#Z"/><use transform="matrix(0.05,0,0,0.05,22.950000000000003,0)" xlink:href="#Q"/><use transform="matrix(0.05,0,0,0.05,32.95,0)" xlink:href="#am"/><use transform="matrix(0.05,0,0,0.05,42.95,0)" xlink:href="#Z"/><use transform="matrix(0.05,0,0,0.05,52.95,0)" xlink:href="#aj"/><use transform="matrix(0.05,0,0,0.05,58.900000000000006,0)" xlink:href="#X"/><use transform="matrix(0.05,0,0,0.05,62.85,0)" xlink:href="#Q"/><use transform="matrix(0.05,0,0,0.05,72.85000000000001,0)" xlink:href="#ar"/></g><g id="r"><use transform="matrix(0.05,0,0,0.05,0,0)" xlink:href="#O"/><use transform="matrix(0.05,0,0,0.05,12,0)" xlink:href="#X"/><use transform="matrix(0.05,0,0,0.05,15.949999999999998,0)" xlink:href="#ar"/><use transform="matrix(0.05,0,0,0.05,25.950000000000003,0)" xlink:href="#Q"/><use transform="matrix(0.05,0,0,0.05,35.95,0)" xlink:href="#U"/><use transform="matrix(0.05,0,0,0.05,45.95,0)" xlink:href="#V"/></g><path fill="#5a5a5a" d="M137 0h-34L2-248h35l83 218 83-218h36" id="as"/><g id="s"><use transform="matrix(0.05,0,0,0.05,0,0)" xlink:href="#as"/><use transform="matrix(0.05,0,0,0.05,11.65,0)" xlink:href="#X"/><use transform="matrix(0.05,0,0,0.05,15.600000000000001,0)" xlink:href="#aa"/><use transform="matrix(0.05,0,0,0.05,24.6,0)" xlink:href="#ac"/><use transform="matrix(0.05,0,0,0.05,34.6,0)" xlink:href="#U"/><use transform="matrix(0.05,0,0,0.05,44.6,0)" xlink:href="#V"/></g><path fill="#5a5a5a" d="M232-93c-1 65-40 97-104 97C67 4 28-28 28-90v-158h33c8 89-33 224 67 224 102 0 64-133 71-224h33v155" id="at"/><g id="t"><use transform="matrix(0.05,0,0,0.05,0,0)" xlink:href="#at"/><use transform="matrix(0.05,0,0,0.05,12.950000000000001,0)" xlink:href="#ao"/><use transform="matrix(0.05,0,0,0.05,22.950000000000003,0)" xlink:href="#am"/><use transform="matrix(0.05,0,0,0.05,32.95,0)" xlink:href="#U"/><use transform="matrix(0.05,0,0,0.05,42.95,0)" xlink:href="#ad"/><use transform="matrix(0.05,0,0,0.05,47.95,0)" xlink:href="#Z"/></g><g id="u"><use transform="matrix(0.05,0,0,0.05,0,0)" xlink:href="#S"/><use transform="matrix(0.05,0,0,0.05,10,0)" xlink:href="#T"/><use transform="matrix(0.05,0,0,0.05,20,0)" xlink:href="#R"/><use transform="matrix(0.05,0,0,0.05,29,0)" xlink:href="#U"/><use transform="matrix(0.05,0,0,0.05,39,0)" xlink:href="#V"/></g><g id="v"><use transform="matrix(0.05,0,0,0.05,0,0)" xlink:href="#W"/><use transform="matrix(0.05,0,0,0.05,10.3,0)" xlink:href="#X"/><use transform="matrix(0.05,0,0,0.05,14.25,0)" xlink:href="#Y"/><use transform="matrix(0.05,0,0,0.05,29.200000000000003,0)" xlink:href="#Z"/><use transform="matrix(0.05,0,0,0.05,39.2,0)" xlink:href="#aa"/></g><path fill="#5a5a5a" d="M30-248c87 1 191-15 191 75 0 78-77 80-158 76V0H30v-248zm33 125c57 0 124 11 124-50 0-59-68-47-124-48v98" id="au"/><g id="w"><use transform="matrix(0.05,0,0,0.05,0,0)" xlink:href="#au"/><use transform="matrix(0.05,0,0,0.05,12,0)" xlink:href="#Z"/><use transform="matrix(0.05,0,0,0.05,22,0)" xlink:href="#Q"/><use transform="matrix(0.05,0,0,0.05,32,0)" xlink:href="#am"/><use transform="matrix(0.05,0,0,0.05,42,0)" xlink:href="#X"/><use transform="matrix(0.05,0,0,0.05,45.95,0)" xlink:href="#Q"/><use transform="matrix(0.05,0,0,0.05,55.95,0)" xlink:href="#ar"/></g><g id="x"><use transform="matrix(0.05,0,0,0.05,0,0)" xlink:href="#O"/><use transform="matrix(0.05,0,0,0.05,12,0)" xlink:href="#ad"/><use transform="matrix(0.05,0,0,0.05,17,0)" xlink:href="#U"/><use transform="matrix(0.05,0,0,0.05,27,0)" xlink:href="#ad"/><use transform="matrix(0.05,0,0,0.05,32,0)" xlink:href="#Z"/></g><g id="y"><use transform="matrix(0.05,0,0,0.05,0,0)" xlink:href="#O"/><use transform="matrix(0.05,0,0,0.05,12,0)" xlink:href="#P"/><use transform="matrix(0.05,0,0,0.05,21,0)" xlink:href="#Q"/><use transform="matrix(0.05,0,0,0.05,31,0)" xlink:href="#R"/></g><path fill="#5a5a5a" d="M140-251c81 0 123 46 123 126C263-46 219 4 140 4 59 4 17-45 17-125s42-126 123-126zm0 227c63 0 89-41 89-101s-29-99-89-99c-61 0-89 39-89 99S79-25 140-24" id="av"/><g id="z"><use transform="matrix(0.05,0,0,0.05,0,0)" xlink:href="#av"/><use transform="matrix(0.05,0,0,0.05,14,0)" xlink:href="#ad"/><use transform="matrix(0.05,0,0,0.05,19,0)" xlink:href="#al"/><use transform="matrix(0.05,0,0,0.05,29,0)" xlink:href="#Z"/><use transform="matrix(0.05,0,0,0.05,39,0)" xlink:href="#aj"/></g><g id="A"><use transform="matrix(0.05,0,0,0.05,0,0)" xlink:href="#S"/><use transform="matrix(0.05,0,0,0.05,10,0)" xlink:href="#X"/><use transform="matrix(0.05,0,0,0.05,13.949999999999998,0)" xlink:href="#ae"/><use transform="matrix(0.05,0,0,0.05,18.95,0)" xlink:href="#Z"/><use transform="matrix(0.05,0,0,0.05,28.950000000000003,0)" xlink:href="#R"/><use transform="matrix(0.05,0,0,0.05,37.95,0)" xlink:href="#P"/><use transform="matrix(0.05,0,0,0.05,46.95,0)" xlink:href="#R"/><use transform="matrix(0.05,0,0,0.05,55.95,0)" xlink:href="#V"/><use transform="matrix(0.05,0,0,0.05,59.900000000000006,0)" xlink:href="#Z"/></g><path d="M205 0l-28-72H64L36 0H1l101-248h38L239 0h-34zm-38-99l-47-123c-12 45-31 82-46 123h93" id="aw"/><path d="M117-194c89-4 53 116 60 194h-32v-121c0-31-8-49-39-48C34-167 62-67 57 0H25l-1-190h30c1 10-1 24 2 32 11-22 29-35 61-36" id="ax"/><path d="M24-231v-30h32v30H24zM24 0v-190h32V0H24" id="ay"/><path d="M210-169c-67 3-38 105-44 169h-31v-121c0-29-5-50-35-48C34-165 62-65 56 0H25l-1-190h30c1 10-1 24 2 32 10-44 99-50 107 0 11-21 27-35 58-36 85-2 47 119 55 194h-31v-121c0-29-5-49-35-48" id="az"/><path d="M141-36C126-15 110 5 73 4 37 3 15-17 15-53c-1-64 63-63 125-63 3-35-9-54-41-54-24 1-41 7-42 31l-33-3c5-37 33-52 76-52 45 0 72 20 72 64v82c-1 20 7 32 28 27v20c-31 9-61-2-59-35zM48-53c0 20 12 33 32 33 41-3 63-29 60-74-43 2-92-5-92 41" id="aA"/><path d="M59-47c-2 24 18 29 38 22v24C64 9 27 4 27-40v-127H5v-23h24l9-43h21v43h35v23H59v120" id="aB"/><path d="M100-194c62-1 85 37 85 99 1 63-27 99-86 99S16-35 15-95c0-66 28-99 85-99zM99-20c44 1 53-31 53-75 0-43-8-75-51-75s-53 32-53 75 10 74 51 75" id="aC"/><g id="B"><use transform="matrix(0.06172839506172839,0,0,0.06172839506172839,0,0)" xlink:href="#aw"/><use transform="matrix(0.06172839506172839,0,0,0.06172839506172839,14.814814814814813,0)" xlink:href="#ax"/><use transform="matrix(0.06172839506172839,0,0,0.06172839506172839,27.160493827160494,0)" xlink:href="#ay"/><use transform="matrix(0.06172839506172839,0,0,0.06172839506172839,32.03703703703704,0)" xlink:href="#az"/><use transform="matrix(0.06172839506172839,0,0,0.06172839506172839,50.49382716049382,0)" xlink:href="#aA"/><use transform="matrix(0.06172839506172839,0,0,0.06172839506172839,62.8395061728395,0)" xlink:href="#aB"/><use transform="matrix(0.06172839506172839,0,0,0.06172839506172839,69.01234567901234,0)" xlink:href="#ay"/><use transform="matrix(0.06172839506172839,0,0,0.06172839506172839,73.88888888888889,0)" xlink:href="#aC"/><use transform="matrix(0.06172839506172839,0,0,0.06172839506172839,86.23456790123457,0)" xlink:href="#ax"/></g><path d="M127-220V0H93v-220H8v-28h204v28h-85" id="aD"/><path d="M106-169C34-169 62-67 57 0H25v-261h32l-1 103c12-21 28-36 61-36 89 0 53 116 60 194h-32v-121c2-32-8-49-39-48" id="aE"/><path d="M114-163C36-179 61-72 57 0H25l-1-190h30c1 12-1 29 2 39 6-27 23-49 58-41v29" id="aF"/><path d="M100-194c63 0 86 42 84 106H49c0 40 14 67 53 68 26 1 43-12 49-29l28 8c-11 28-37 45-77 45C44 4 14-33 15-96c1-61 26-98 85-98zm52 81c6-60-76-77-97-28-3 7-6 17-6 28h103" id="aG"/><path d="M85-194c31 0 48 13 60 33l-1-100h32l1 261h-30c-2-10 0-23-3-31C134-8 116 4 85 4 32 4 16-35 15-94c0-66 23-100 70-100zm9 24c-40 0-46 34-46 75 0 40 6 74 45 74 42 0 51-32 51-76 0-42-9-74-50-73" id="aH"/><g id="C"><use transform="matrix(0.06172839506172839,0,0,0.06172839506172839,0,0)" xlink:href="#aD"/><use transform="matrix(0.06172839506172839,0,0,0.06172839506172839,13.518518518518517,0)" xlink:href="#aE"/><use transform="matrix(0.06172839506172839,0,0,0.06172839506172839,25.864197530864196,0)" xlink:href="#aF"/><use transform="matrix(0.06172839506172839,0,0,0.06172839506172839,33.20987654320987,0)" xlink:href="#aG"/><use transform="matrix(0.06172839506172839,0,0,0.06172839506172839,45.55555555555555,0)" xlink:href="#aA"/><use transform="matrix(0.06172839506172839,0,0,0.06172839506172839,57.90123456790123,0)" xlink:href="#aH"/></g><path d="M96-169c-40 0-48 33-48 73s9 75 48 75c24 0 41-14 43-38l32 2c-6 37-31 61-74 61-59 0-76-41-82-99-10-93 101-131 147-64 4 7 5 14 7 22l-32 3c-4-21-16-35-41-35" id="aI"/><g id="D"><use transform="matrix(0.06172839506172839,0,0,0.06172839506172839,0,0)" xlink:href="#aI"/><use transform="matrix(0.06172839506172839,0,0,0.06172839506172839,11.11111111111111,0)" xlink:href="#aA"/><use transform="matrix(0.06172839506172839,0,0,0.06172839506172839,23.45679012345679,0)" xlink:href="#ax"/></g><path d="M115-194c55 1 70 41 70 98S169 2 115 4C84 4 66-9 55-30l1 105H24l-1-265h31l2 30c10-21 28-34 59-34zm-8 174c40 0 45-34 45-75s-6-73-45-74c-42 0-51 32-51 76 0 43 10 73 51 73" id="aJ"/><path d="M84 4C-5 8 30-112 23-190h32v120c0 31 7 50 39 49 72-2 45-101 50-169h31l1 190h-30c-1-10 1-25-2-33-11 22-28 36-60 37" id="aK"/><g id="E"><use transform="matrix(0.06172839506172839,0,0,0.06172839506172839,0,0)" xlink:href="#aJ"/><use transform="matrix(0.06172839506172839,0,0,0.06172839506172839,12.345679012345679,0)" xlink:href="#aF"/><use transform="matrix(0.06172839506172839,0,0,0.06172839506172839,19.691358024691358,0)" xlink:href="#aC"/><use transform="matrix(0.06172839506172839,0,0,0.06172839506172839,32.03703703703704,0)" xlink:href="#aH"/><use transform="matrix(0.06172839506172839,0,0,0.06172839506172839,44.382716049382715,0)" xlink:href="#aK"/><use transform="matrix(0.06172839506172839,0,0,0.06172839506172839,56.72839506172839,0)" xlink:href="#aI"/><use transform="matrix(0.06172839506172839,0,0,0.06172839506172839,67.8395061728395,0)" xlink:href="#aG"/></g><path d="M24 0v-261h32V0H24" id="aL"/><g id="F"><use transform="matrix(0.06172839506172839,0,0,0.06172839506172839,0,0)" xlink:href="#az"/><use transform="matrix(0.06172839506172839,0,0,0.06172839506172839,18.456790123456788,0)" xlink:href="#aK"/><use transform="matrix(0.06172839506172839,0,0,0.06172839506172839,30.80246913580247,0)" xlink:href="#aL"/><use transform="matrix(0.06172839506172839,0,0,0.06172839506172839,35.67901234567901,0)" xlink:href="#aB"/><use transform="matrix(0.06172839506172839,0,0,0.06172839506172839,41.851851851851855,0)" xlink:href="#ay"/><use transform="matrix(0.06172839506172839,0,0,0.06172839506172839,46.7283950617284,0)" xlink:href="#aJ"/><use transform="matrix(0.06172839506172839,0,0,0.06172839506172839,59.074074074074076,0)" xlink:href="#aL"/><use transform="matrix(0.06172839506172839,0,0,0.06172839506172839,63.95061728395061,0)" xlink:href="#aG"/></g><g id="G"><use transform="matrix(0.06172839506172839,0,0,0.06172839506172839,0,0)" xlink:href="#aA"/><use transform="matrix(0.06172839506172839,0,0,0.06172839506172839,12.345679012345679,0)" xlink:href="#ax"/><use transform="matrix(0.06172839506172839,0,0,0.06172839506172839,24.691358024691358,0)" xlink:href="#ay"/><use transform="matrix(0.06172839506172839,0,0,0.06172839506172839,29.5679012345679,0)" xlink:href="#az"/><use transform="matrix(0.06172839506172839,0,0,0.06172839506172839,48.02469135802468,0)" xlink:href="#aA"/><use transform="matrix(0.06172839506172839,0,0,0.06172839506172839,60.37037037037036,0)" xlink:href="#aB"/><use transform="matrix(0.06172839506172839,0,0,0.06172839506172839,66.5432098765432,0)" xlink:href="#ay"/><use transform="matrix(0.06172839506172839,0,0,0.06172839506172839,71.41975308641975,0)" xlink:href="#aC"/><use transform="matrix(0.06172839506172839,0,0,0.06172839506172839,83.76543209876543,0)" xlink:href="#ax"/></g><path d="M108 0H70L1-190h34L89-25l56-165h34" id="aM"/><path d="M135-143c-3-34-86-38-87 0 15 53 115 12 119 90S17 21 10-45l28-5c4 36 97 45 98 0-10-56-113-15-118-90-4-57 82-63 122-42 12 7 21 19 24 35" id="aN"/><g id="H"><use transform="matrix(0.06172839506172839,0,0,0.06172839506172839,0,0)" xlink:href="#aM"/><use transform="matrix(0.06172839506172839,0,0,0.06172839506172839,11.11111111111111,0)" xlink:href="#ay"/><use transform="matrix(0.06172839506172839,0,0,0.06172839506172839,15.987654320987653,0)" xlink:href="#aN"/><use transform="matrix(0.06172839506172839,0,0,0.06172839506172839,27.098765432098766,0)" xlink:href="#aK"/><use transform="matrix(0.06172839506172839,0,0,0.06172839506172839,39.44444444444444,0)" xlink:href="#aA"/><use transform="matrix(0.06172839506172839,0,0,0.06172839506172839,51.79012345679012,0)" xlink:href="#aL"/></g><g id="I"><use transform="matrix(0.06172839506172839,0,0,0.06172839506172839,0,0)" xlink:href="#aK"/><use transform="matrix(0.06172839506172839,0,0,0.06172839506172839,12.345679012345679,0)" xlink:href="#aJ"/><use transform="matrix(0.06172839506172839,0,0,0.06172839506172839,24.691358024691358,0)" xlink:href="#aH"/><use transform="matrix(0.06172839506172839,0,0,0.06172839506172839,37.03703703703704,0)" xlink:href="#aA"/><use transform="matrix(0.06172839506172839,0,0,0.06172839506172839,49.382716049382715,0)" xlink:href="#aB"/><use transform="matrix(0.06172839506172839,0,0,0.06172839506172839,55.55555555555556,0)" xlink:href="#aG"/><use transform="matrix(0.06172839506172839,0,0,0.06172839506172839,67.90123456790124,0)" xlink:href="#aN"/></g><path d="M206 0h-36l-40-164L89 0H53L-1-190h32L70-26l43-164h34l41 164 42-164h31" id="aO"/><g id="J"><use transform="matrix(0.06172839506172839,0,0,0.06172839506172839,0,0)" xlink:href="#aO"/><use transform="matrix(0.06172839506172839,0,0,0.06172839506172839,15.987654320987653,0)" xlink:href="#aE"/><use transform="matrix(0.06172839506172839,0,0,0.06172839506172839,28.333333333333332,0)" xlink:href="#ay"/><use transform="matrix(0.06172839506172839,0,0,0.06172839506172839,33.20987654320987,0)" xlink:href="#aL"/><use transform="matrix(0.06172839506172839,0,0,0.06172839506172839,38.08641975308642,0)" xlink:href="#aG"/></g><g id="K"><use transform="matrix(0.06172839506172839,0,0,0.06172839506172839,0,0)" xlink:href="#az"/><use transform="matrix(0.06172839506172839,0,0,0.06172839506172839,18.456790123456788,0)" xlink:href="#aA"/><use transform="matrix(0.06172839506172839,0,0,0.06172839506172839,30.80246913580247,0)" xlink:href="#ay"/><use transform="matrix(0.06172839506172839,0,0,0.06172839506172839,35.67901234567901,0)" xlink:href="#ax"/></g><g id="L"><use transform="matrix(0.06172839506172839,0,0,0.06172839506172839,0,0)" xlink:href="#aB"/><use transform="matrix(0.06172839506172839,0,0,0.06172839506172839,6.172839506172839,0)" xlink:href="#aE"/><use transform="matrix(0.06172839506172839,0,0,0.06172839506172839,18.51851851851852,0)" xlink:href="#aF"/><use transform="matrix(0.06172839506172839,0,0,0.06172839506172839,25.864197530864196,0)" xlink:href="#aG"/><use transform="matrix(0.06172839506172839,0,0,0.06172839506172839,38.20987654320987,0)" xlink:href="#aA"/><use transform="matrix(0.06172839506172839,0,0,0.06172839506172839,50.55555555555555,0)" xlink:href="#aH"/></g><g id="M"><use transform="matrix(0.06172839506172839,0,0,0.06172839506172839,0,0)" xlink:href="#ay"/><use transform="matrix(0.06172839506172839,0,0,0.06172839506172839,4.876543209876543,0)" xlink:href="#aN"/></g><path d="M115-194c53 0 69 39 70 98 0 66-23 100-70 100C84 3 66-7 56-30L54 0H23l1-261h32v101c10-23 28-34 59-34zm-8 174c40 0 45-34 45-75 0-40-5-75-45-74-42 0-51 32-51 76 0 43 10 73 51 73" id="aP"/><path d="M179-190L93 31C79 59 56 82 12 73V49c39 6 53-20 64-50L1-190h34L92-34l54-156h33" id="aQ"/><path d="M33 0v-38h34V0H33" id="aR"/><g id="N"><use transform="matrix(0.06172839506172839,0,0,0.06172839506172839,0,0)" xlink:href="#aP"/><use transform="matrix(0.06172839506172839,0,0,0.06172839506172839,12.345679012345679,0)" xlink:href="#aK"/><use transform="matrix(0.06172839506172839,0,0,0.06172839506172839,24.691358024691358,0)" xlink:href="#aN"/><use transform="matrix(0.06172839506172839,0,0,0.06172839506172839,35.80246913580247,0)" xlink:href="#aQ"/><use transform="matrix(0.06172839506172839,0,0,0.06172839506172839,45.24691358024691,0)" xlink:href="#aR"/></g></defs></g></svg>