<svg xmlns="http://www.w3.org/2000/svg" xmlns:xlink="http://www.w3.org/1999/xlink" width="900" height="682"><g transform="translate(-220 -44)"><path d="M340 80h240v60H340z" fill="none"/><use xlink:href="#a" transform="matrix(1,0,0,1,340,80) translate(3.5999999999999943 33.6)"/><use xlink:href="#b" transform="matrix(1,0,0,1,340,80) translate(90.5 33.6)"/><use xlink:href="#c" transform="matrix(1,0,0,1,340,80) translate(174.45000000000002 33.6)"/><path d="M380 300h160v120H380z" stroke="#989898" stroke-width="2" fill="#c1e4f7"/><use xlink:href="#d" transform="matrix(1,0,0,1,380,300) translate(9.829999999999993 63.15)"/><path d="M380 500h160v60H380z" stroke="#989898" stroke-width="2" fill="#c1e4f7"/><use xlink:href="#e" transform="matrix(1,0,0,1,380,500) translate(17.255000000000003 33.15)"/><path d="M700 300h160v120H700z" stroke="#989898" stroke-width="2" fill="#c1e4f7"/><use xlink:href="#f" transform="matrix(1,0,0,1,700,300) translate(7.579999999999993 63.15)"/><use xlink:href="#g" transform="matrix(1,0,0,1,700,300) translate(84.43 63.15)"/><path d="M940 300h160v120c-26.67-20-43.33-20-53.33-20-16 0-37.34 20-53.34 20-10 0-26.66 0-53.33-20z" stroke="#989898" stroke-width="2" fill="#c1e4f7"/><use xlink:href="#h" transform="matrix(1,0,0,1,940,300) translate(44.07999999999999 51.9)"/><use xlink:href="#i" transform="matrix(1,0,0,1,940,300) translate(42.60499999999999 73.5)"/><path d="M260.8 320c-5.74 0-10.4 4.66-10.4 10.4v19.2c0 5.74-4.66 10.4-10.4 10.4 5.74 0 10.4 4.66 10.4 10.4v19.2c0 5.74 4.66 10.4 10.4 10.4m98.4 0c5.74 0 10.4-4.66 10.4-10.4v-19.2c0-5.74 4.66-10.4 10.4-10.4-5.74 0-10.4-4.66-10.4-10.4v-19.2c0-5.74-4.66-10.4-10.4-10.4" stroke="#989898" stroke-width="2" fill="none"/><use xlink:href="#j" transform="matrix(1,0,0,1,255.6,320) translate(16.025 32.8)"/><use xlink:href="#k" transform="matrix(1,0,0,1,255.6,320) translate(4.974999999999994 54.4)"/><path d="M780 420v110H540" stroke="#969696" stroke-width="2" fill="none"/><path d="M554.27 534.64L540 530l14.27-4.64z" fill="#969696"/><path d="M555.27 536L540 531.06v-2.1l15.27-4.96zm-12.03-6l10.03 3.26v-6.52z" fill="#969696"/><use xlink:href="#l" transform="matrix(1,0,0,1,567.3085528425354,504.3999999999999) translate(0 14.4)"/><use xlink:href="#m" transform="matrix(1,0,0,1,567.3085528425354,504.3999999999999) translate(47.95 14.4)"/><path d="M540 360h160" stroke="#969696" stroke-width="2" fill="none"/><path d="M700 360l-14.27 4.64v-9.28z" fill="#969696"/><path d="M700 358.95v2.1L684.73 366v-12zm-13.27 4.3l10.03-3.25-10.03-3.26z" fill="#969696"/><use xlink:href="#n" transform="matrix(1,0,0,1,551.3280238633929,364) translate(0 14.4)"/><use xlink:href="#m" transform="matrix(1,0,0,1,551.3280238633929,364) translate(64.85 14.4)"/><path d="M380 170h160v60H380z" stroke="#989898" stroke-width="2" fill="#c1e4f7"/><use xlink:href="#o" transform="matrix(1,0,0,1,380,170) translate(46.45499999999999 33.15)"/><path d="M460 230v70" stroke="#969696" stroke-width="2" fill="none"/><path d="M460 300l-4.64-14.27h9.28z" fill="#969696"/><path d="M461.05 300h-2.1L454 284.73h12zm-4.3-13.27l3.25 10.03 3.26-10.03z" fill="#969696"/><path d="M860 360h79" stroke="#969696" stroke-width="2" fill="none"/><path d="M940 361h-1v-2h1z" fill="#969696"/><path d="M670 60v295c2.76 0 5 2.24 5 5s-2.24 5-5 5v160c2.76 0 5 2.24 5 5s-2.24 5-5 5v175" fill="none"/><path d="M670 60v14.05m0 14.05v28.1m0 14.04v28.1m0 14.04v28.1m0 14.04v28.1m0 14.05v28.1m0 14.04v28.1m0 14.05V355l2.95.96 1.8 2.46.25 1.58-.96 2.95-2.46 1.8-1.58.25v13.33m0 13.34v26.66m0 13.34v26.66m0 13.34v26.66m0 13.34V525l2.95.96 1.8 2.46.25 1.58-.96 2.95-2.46 1.8-1.58.25v14.58m0 14.6v29.15m0 14.6v29.15m0 14.6v29.15m0 14.6V710" stroke="#000" stroke-width="3" fill="none"/><path d="M740 80h240v60H740z" fill="none"/><use xlink:href="#p" transform="matrix(1,0,0,1,740,80) translate(14.125 33.6)"/><use xlink:href="#b" transform="matrix(1,0,0,1,740,80) translate(79.975 33.6)"/><use xlink:href="#c" transform="matrix(1,0,0,1,740,80) translate(163.925 33.6)"/><path d="M1040 230H896l-36-40 36-40h144z" stroke="#989898" stroke-width="2" fill="#ffeca9"/><use xlink:href="#q" transform="matrix(1,0,0,1,897,158) translate(26.074999999999996 24.799999999999997)"/><use xlink:href="#r" transform="matrix(1,0,0,1,897,158) translate(42.55 46.4)"/><path d="M781 300h-2v-48.9h2zm79-109h-79v38.5h-2V189h81zM860 190l.9 1h-.9v-2h.9z" fill="#969696"/><path d="M780 300l-4.64-14.27h9.28z" fill="#969696"/><path d="M781.05 300h-2.1L774 284.73h12zm-4.3-13.27l3.25 10.03 3.26-10.03z" fill="#969696"/><g><use xlink:href="#s" transform="matrix(1,0,0,1,747.05,229.5013165588402) translate(0 14.4)"/></g><path d="M540 360h75" stroke="#969696" stroke-width="2" fill="none"/><path d="M1040 560H860l36 40-36 40h180z" stroke="#989898" stroke-width="2" fill="#ffeca9"/><g><use xlink:href="#t" transform="matrix(1,0,0,1,897,568) translate(11.75 35.6)"/><use xlink:href="#u" transform="matrix(1,0,0,1,897,568) translate(74.7 35.6)"/></g><path d="M780 520v80h80" fill="none"/><path d="M780 520v3m0 4v6m0 4v6m0 4v6m0 4v6m0 4v6m0 4v6m0 4v6m0 4v3h3m4 0h6m4 0h6m4 0h6m4 0h6m4 0h6m4 0h6m4 0h6m4 0h3" stroke="#969696" stroke-width="2" fill="none"/><path d="M860 600l-14.27 4.64v-9.28z" stroke="#969696" stroke-width="2" fill="#969696"/><defs><path fill="#5a5a5a" d="M248-139C247-14 144 9 11 0l48-248c105-6 190 8 189 109zm-34 0c1-70-52-87-126-82L50-27c98 7 163-21 164-112" id="v"/><path fill="#5a5a5a" d="M30-147c31-64 166-65 159 27C183-49 158 1 86 4 9 8 1-88 30-147zM88-20c53 0 68-48 68-100 0-31-11-51-44-50-52 1-68 46-68 97 0 32 13 53 44 53" id="w"/><path fill="#5a5a5a" d="M44-68c0 29 11 47 38 47 30 0 42-19 51-41l28 9C148-21 126 4 82 4 31 4 10-29 12-85c3-77 74-140 146-93 12 8 15 23 18 40l-31 5c-1-22-13-36-36-36-52 0-65 49-65 101" id="x"/><path fill="#5a5a5a" d="M67 3c-93-2-31-127-26-193h32L48-50c-3 39 53 32 70 12 30-34 30-101 43-152h32L157 0h-30c1-10 6-24 4-33-14 20-29 37-64 36" id="y"/><path fill="#5a5a5a" d="M248-111c6-24 9-61-24-58-72 9-57 108-77 169h-31l26-142c3-37-50-30-64-10C52-115 50-51 37 0H6l36-190h30c-1 10-6 24-4 32 13-43 101-52 105 5 13-22 29-41 61-41 90 0 28 129 23 194h-31" id="z"/><path fill="#5a5a5a" d="M111-194c62-3 86 47 72 106H45c-7 38 6 69 45 68 27-1 43-14 53-32l24 11C152-15 129 4 87 4 38 3 12-23 12-71c0-70 32-119 99-123zm44 81c14-66-71-72-95-28-4 8-8 17-11 28h106" id="A"/><path fill="#5a5a5a" d="M67-158c22-48 132-52 116 29L158 0h-32l25-140c3-38-53-32-70-12C52-117 51-52 38 0H6l36-190h30" id="B"/><path fill="#5a5a5a" d="M51-54c-9 22 5 41 31 30L79-1C43 14 10-4 19-52l22-115H19l5-23h22l19-43h21l-9 43h35l-4 23H73" id="C"/><g id="a"><use transform="matrix(0.05,0,0,0.05,0,0)" xlink:href="#v"/><use transform="matrix(0.05,0,0,0.05,12.950000000000001,0)" xlink:href="#w"/><use transform="matrix(0.05,0,0,0.05,22.950000000000003,0)" xlink:href="#x"/><use transform="matrix(0.05,0,0,0.05,31.950000000000003,0)" xlink:href="#y"/><use transform="matrix(0.05,0,0,0.05,41.95,0)" xlink:href="#z"/><use transform="matrix(0.05,0,0,0.05,56.900000000000006,0)" xlink:href="#A"/><use transform="matrix(0.05,0,0,0.05,66.9,0)" xlink:href="#B"/><use transform="matrix(0.05,0,0,0.05,76.9,0)" xlink:href="#C"/></g><path fill="#5a5a5a" d="M11 0l48-248h184l-5 28H87l-15 79h140l-5 27H67L50-27h158l-5 27H11" id="D"/><path fill="#5a5a5a" d="M124 0L87-78 21 0h-35l86-98-46-92h33l34 74 61-74h37l-83 92 50 98h-34" id="E"/><path fill="#5a5a5a" d="M50-231l6-30h32l-6 30H50zM6 0l37-190h31L37 0H6" id="F"/><g id="b"><use transform="matrix(0.05,0,0,0.05,0,0)" xlink:href="#D"/><use transform="matrix(0.05,0,0,0.05,12,0)" xlink:href="#E"/><use transform="matrix(0.05,0,0,0.05,21,0)" xlink:href="#A"/><use transform="matrix(0.05,0,0,0.05,31,0)" xlink:href="#x"/><use transform="matrix(0.05,0,0,0.05,40,0)" xlink:href="#y"/><use transform="matrix(0.05,0,0,0.05,50,0)" xlink:href="#C"/><use transform="matrix(0.05,0,0,0.05,55,0)" xlink:href="#F"/><use transform="matrix(0.05,0,0,0.05,58.95,0)" xlink:href="#w"/><use transform="matrix(0.05,0,0,0.05,68.95,0)" xlink:href="#B"/></g><path fill="#5a5a5a" d="M125-24c46 0 70-25 89-51l25 16C214-24 183 4 123 4 8 4-5-146 60-208c32-50 158-61 191-5 5 7 9 14 11 22l-32 10c-9-28-33-43-69-43-74 0-108 51-108 125 0 46 24 75 72 75" id="G"/><g id="c"><use transform="matrix(0.05,0,0,0.05,0,0)" xlink:href="#G"/><use transform="matrix(0.05,0,0,0.05,12.950000000000001,0)" xlink:href="#w"/><use transform="matrix(0.05,0,0,0.05,22.950000000000003,0)" xlink:href="#B"/><use transform="matrix(0.05,0,0,0.05,32.95,0)" xlink:href="#C"/><use transform="matrix(0.05,0,0,0.05,37.95,0)" xlink:href="#A"/><use transform="matrix(0.05,0,0,0.05,47.95,0)" xlink:href="#E"/><use transform="matrix(0.05,0,0,0.05,56.95,0)" xlink:href="#C"/></g><path fill="#303030" d="M266 0h-40l-56-210L115 0H75L2-248h35L96-30l15-64 43-154h32l59 218 59-218h35" id="H"/><path fill="#303030" d="M100-194c62-1 85 37 85 99 1 63-27 99-86 99S16-35 15-95c0-66 28-99 85-99zM99-20c44 1 53-31 53-75 0-43-8-75-51-75s-53 32-53 75 10 74 51 75" id="I"/><path fill="#303030" d="M114-163C36-179 61-72 57 0H25l-1-190h30c1 12-1 29 2 39 6-27 23-49 58-41v29" id="J"/><path fill="#303030" d="M143 0L79-87 56-68V0H24v-261h32v163l83-92h37l-77 82L181 0h-38" id="K"/><path fill="#303030" d="M24 0v-261h32V0H24" id="L"/><path fill="#303030" d="M100-194c63 0 86 42 84 106H49c0 40 14 67 53 68 26 1 43-12 49-29l28 8c-11 28-37 45-77 45C44 4 14-33 15-96c1-61 26-98 85-98zm52 81c6-60-76-77-97-28-3 7-6 17-6 28h103" id="M"/><path fill="#303030" d="M59-47c-2 24 18 29 38 22v24C64 9 27 4 27-40v-127H5v-23h24l9-43h21v43h35v23H59v120" id="N"/><path fill="#303030" d="M205 0l-28-72H64L36 0H1l101-248h38L239 0h-34zm-38-99l-47-123c-12 45-31 82-46 123h93" id="O"/><path fill="#303030" d="M117-194c89-4 53 116 60 194h-32v-121c0-31-8-49-39-48C34-167 62-67 57 0H25l-1-190h30c1 10-1 24 2 32 11-22 29-35 61-36" id="P"/><path fill="#303030" d="M24-231v-30h32v30H24zM24 0v-190h32V0H24" id="Q"/><path fill="#303030" d="M210-169c-67 3-38 105-44 169h-31v-121c0-29-5-50-35-48C34-165 62-65 56 0H25l-1-190h30c1 10-1 24 2 32 10-44 99-50 107 0 11-21 27-35 58-36 85-2 47 119 55 194h-31v-121c0-29-5-49-35-48" id="R"/><path fill="#303030" d="M141-36C126-15 110 5 73 4 37 3 15-17 15-53c-1-64 63-63 125-63 3-35-9-54-41-54-24 1-41 7-42 31l-33-3c5-37 33-52 76-52 45 0 72 20 72 64v82c-1 20 7 32 28 27v20c-31 9-61-2-59-35zM48-53c0 20 12 33 32 33 41-3 63-29 60-74-43 2-92-5-92 41" id="S"/><g id="d"><use transform="matrix(0.05,0,0,0.05,0,0)" xlink:href="#H"/><use transform="matrix(0.05,0,0,0.05,16.599999999999998,0)" xlink:href="#I"/><use transform="matrix(0.05,0,0,0.05,26.599999999999994,0)" xlink:href="#J"/><use transform="matrix(0.05,0,0,0.05,32.55,0)" xlink:href="#K"/><use transform="matrix(0.05,0,0,0.05,41.55,0)" xlink:href="#L"/><use transform="matrix(0.05,0,0,0.05,45.5,0)" xlink:href="#M"/><use transform="matrix(0.05,0,0,0.05,55.5,0)" xlink:href="#N"/><use transform="matrix(0.05,0,0,0.05,60.5,0)" xlink:href="#O"/><use transform="matrix(0.05,0,0,0.05,72.5,0)" xlink:href="#P"/><use transform="matrix(0.05,0,0,0.05,82.5,0)" xlink:href="#Q"/><use transform="matrix(0.05,0,0,0.05,86.45,0)" xlink:href="#R"/><use transform="matrix(0.05,0,0,0.05,101.4,0)" xlink:href="#S"/><use transform="matrix(0.05,0,0,0.05,111.4,0)" xlink:href="#N"/><use transform="matrix(0.05,0,0,0.05,116.4,0)" xlink:href="#Q"/><use transform="matrix(0.05,0,0,0.05,120.35000000000001,0)" xlink:href="#I"/><use transform="matrix(0.05,0,0,0.05,130.35000000000002,0)" xlink:href="#P"/></g><path fill="#303030" d="M30 0v-248h187v28H63v79h144v27H63v87h162V0H30" id="T"/><path fill="#303030" d="M101-234c-31-9-42 10-38 44h38v23H63V0H32v-167H5v-23h27c-7-52 17-82 69-68v24" id="U"/><path fill="#303030" d="M96-169c-40 0-48 33-48 73s9 75 48 75c24 0 41-14 43-38l32 2c-6 37-31 61-74 61-59 0-76-41-82-99-10-93 101-131 147-64 4 7 5 14 7 22l-32 3c-4-21-16-35-41-35" id="V"/><g id="e"><use transform="matrix(0.05,0,0,0.05,0,0)" xlink:href="#O"/><use transform="matrix(0.05,0,0,0.05,12,0)" xlink:href="#P"/><use transform="matrix(0.05,0,0,0.05,22,0)" xlink:href="#Q"/><use transform="matrix(0.05,0,0,0.05,25.950000000000003,0)" xlink:href="#R"/><use transform="matrix(0.05,0,0,0.05,40.9,0)" xlink:href="#S"/><use transform="matrix(0.05,0,0,0.05,50.9,0)" xlink:href="#N"/><use transform="matrix(0.05,0,0,0.05,55.900000000000006,0)" xlink:href="#Q"/><use transform="matrix(0.05,0,0,0.05,59.85,0)" xlink:href="#I"/><use transform="matrix(0.05,0,0,0.05,69.85,0)" xlink:href="#P"/><use transform="matrix(0.05,0,0,0.05,79.85,0)" xlink:href="#T"/><use transform="matrix(0.05,0,0,0.05,91.85,0)" xlink:href="#U"/><use transform="matrix(0.05,0,0,0.05,96.5,0)" xlink:href="#U"/><use transform="matrix(0.05,0,0,0.05,101.5,0)" xlink:href="#M"/><use transform="matrix(0.05,0,0,0.05,111.5,0)" xlink:href="#V"/><use transform="matrix(0.05,0,0,0.05,120.5,0)" xlink:href="#N"/></g><g id="f"><use transform="matrix(0.05,0,0,0.05,0,0)" xlink:href="#O"/><use transform="matrix(0.05,0,0,0.05,12,0)" xlink:href="#P"/><use transform="matrix(0.05,0,0,0.05,22,0)" xlink:href="#Q"/><use transform="matrix(0.05,0,0,0.05,25.950000000000003,0)" xlink:href="#R"/><use transform="matrix(0.05,0,0,0.05,40.9,0)" xlink:href="#S"/><use transform="matrix(0.05,0,0,0.05,50.9,0)" xlink:href="#N"/><use transform="matrix(0.05,0,0,0.05,55.900000000000006,0)" xlink:href="#I"/><use transform="matrix(0.05,0,0,0.05,65.9,0)" xlink:href="#J"/></g><path fill="#303030" d="M33 0v-248h34V0H33" id="W"/><path fill="#303030" d="M135-143c-3-34-86-38-87 0 15 53 115 12 119 90S17 21 10-45l28-5c4 36 97 45 98 0-10-56-113-15-118-90-4-57 82-63 122-42 12 7 21 19 24 35" id="X"/><g id="g"><use transform="matrix(0.05,0,0,0.05,0,0)" xlink:href="#W"/><use transform="matrix(0.05,0,0,0.05,5,0)" xlink:href="#P"/><use transform="matrix(0.05,0,0,0.05,15,0)" xlink:href="#X"/><use transform="matrix(0.05,0,0,0.05,24,0)" xlink:href="#N"/><use transform="matrix(0.05,0,0,0.05,29,0)" xlink:href="#S"/><use transform="matrix(0.05,0,0,0.05,39,0)" xlink:href="#P"/><use transform="matrix(0.05,0,0,0.05,49,0)" xlink:href="#V"/><use transform="matrix(0.05,0,0,0.05,58,0)" xlink:href="#M"/></g><g id="h"><use transform="matrix(0.05,0,0,0.05,0,0)" xlink:href="#O"/><use transform="matrix(0.05,0,0,0.05,12,0)" xlink:href="#P"/><use transform="matrix(0.05,0,0,0.05,22,0)" xlink:href="#Q"/><use transform="matrix(0.05,0,0,0.05,25.950000000000003,0)" xlink:href="#R"/><use transform="matrix(0.05,0,0,0.05,40.9,0)" xlink:href="#S"/><use transform="matrix(0.05,0,0,0.05,50.9,0)" xlink:href="#N"/><use transform="matrix(0.05,0,0,0.05,55.900000000000006,0)" xlink:href="#I"/><use transform="matrix(0.05,0,0,0.05,65.9,0)" xlink:href="#J"/></g><path fill="#303030" d="M30-248c118-7 216 8 213 122C240-48 200 0 122 0H30v-248zM63-27c89 8 146-16 146-99s-60-101-146-95v194" id="Y"/><g id="i"><use transform="matrix(0.05,0,0,0.05,0,0)" xlink:href="#Y"/><use transform="matrix(0.05,0,0,0.05,12.950000000000001,0)" xlink:href="#M"/><use transform="matrix(0.05,0,0,0.05,22.950000000000003,0)" xlink:href="#U"/><use transform="matrix(0.05,0,0,0.05,27.950000000000003,0)" xlink:href="#Q"/><use transform="matrix(0.05,0,0,0.05,31.900000000000002,0)" xlink:href="#P"/><use transform="matrix(0.05,0,0,0.05,41.900000000000006,0)" xlink:href="#Q"/><use transform="matrix(0.05,0,0,0.05,45.85000000000001,0)" xlink:href="#N"/><use transform="matrix(0.05,0,0,0.05,50.85000000000001,0)" xlink:href="#Q"/><use transform="matrix(0.05,0,0,0.05,54.80000000000001,0)" xlink:href="#I"/><use transform="matrix(0.05,0,0,0.05,64.80000000000001,0)" xlink:href="#P"/></g><path fill="#5a5a5a" d="M30-248c87 1 191-15 191 75 0 78-77 80-158 76V0H30v-248zm33 125c57 0 124 11 124-50 0-59-68-47-124-48v98" id="Z"/><path fill="#5a5a5a" d="M24 0v-261h32V0H24" id="aa"/><path fill="#5a5a5a" d="M141-36C126-15 110 5 73 4 37 3 15-17 15-53c-1-64 63-63 125-63 3-35-9-54-41-54-24 1-41 7-42 31l-33-3c5-37 33-52 76-52 45 0 72 20 72 64v82c-1 20 7 32 28 27v20c-31 9-61-2-59-35zM48-53c0 20 12 33 32 33 41-3 63-29 60-74-43 2-92-5-92 41" id="ab"/><path fill="#5a5a5a" d="M179-190L93 31C79 59 56 82 12 73V49c39 6 53-20 64-50L1-190h34L92-34l54-156h33" id="ac"/><path fill="#5a5a5a" d="M185-189c-5-48-123-54-124 2 14 75 158 14 163 119 3 78-121 87-175 55-17-10-28-26-33-46l33-7c5 56 141 63 141-1 0-78-155-14-162-118-5-82 145-84 179-34 5 7 8 16 11 25" id="ad"/><path fill="#5a5a5a" d="M59-47c-2 24 18 29 38 22v24C64 9 27 4 27-40v-127H5v-23h24l9-43h21v43h35v23H59v120" id="ae"/><path fill="#5a5a5a" d="M100-194c63 0 86 42 84 106H49c0 40 14 67 53 68 26 1 43-12 49-29l28 8c-11 28-37 45-77 45C44 4 14-33 15-96c1-61 26-98 85-98zm52 81c6-60-76-77-97-28-3 7-6 17-6 28h103" id="af"/><g id="j"><use transform="matrix(0.05,0,0,0.05,0,0)" xlink:href="#Z"/><use transform="matrix(0.05,0,0,0.05,12,0)" xlink:href="#aa"/><use transform="matrix(0.05,0,0,0.05,15.949999999999998,0)" xlink:href="#ab"/><use transform="matrix(0.05,0,0,0.05,25.950000000000003,0)" xlink:href="#ac"/><use transform="matrix(0.05,0,0,0.05,34.95,0)" xlink:href="#ad"/><use transform="matrix(0.05,0,0,0.05,46.95,0)" xlink:href="#ae"/><use transform="matrix(0.05,0,0,0.05,51.95,0)" xlink:href="#ab"/><use transform="matrix(0.05,0,0,0.05,61.95,0)" xlink:href="#ae"/><use transform="matrix(0.05,0,0,0.05,66.95,0)" xlink:href="#af"/></g><path fill="#5a5a5a" d="M212-179c-10-28-35-45-73-45-59 0-87 40-87 99 0 60 29 101 89 101 43 0 62-24 78-52l27 14C228-24 195 4 139 4 59 4 22-46 18-125c-6-104 99-153 187-111 19 9 31 26 39 46" id="ag"/><path fill="#5a5a5a" d="M84 4C-5 8 30-112 23-190h32v120c0 31 7 50 39 49 72-2 45-101 50-169h31l1 190h-30c-1-10 1-25-2-33-11 22-28 36-60 37" id="ah"/><path fill="#5a5a5a" d="M114-163C36-179 61-72 57 0H25l-1-190h30c1 12-1 29 2 39 6-27 23-49 58-41v29" id="ai"/><path fill="#5a5a5a" d="M117-194c89-4 53 116 60 194h-32v-121c0-31-8-49-39-48C34-167 62-67 57 0H25l-1-190h30c1 10-1 24 2 32 11-22 29-35 61-36" id="aj"/><path fill="#5a5a5a" d="M127-220V0H93v-220H8v-28h204v28h-85" id="ak"/><path fill="#5a5a5a" d="M24-231v-30h32v30H24zM24 0v-190h32V0H24" id="al"/><path fill="#5a5a5a" d="M210-169c-67 3-38 105-44 169h-31v-121c0-29-5-50-35-48C34-165 62-65 56 0H25l-1-190h30c1 10-1 24 2 32 10-44 99-50 107 0 11-21 27-35 58-36 85-2 47 119 55 194h-31v-121c0-29-5-49-35-48" id="am"/><g id="k"><use transform="matrix(0.05,0,0,0.05,0,0)" xlink:href="#ag"/><use transform="matrix(0.05,0,0,0.05,12.950000000000001,0)" xlink:href="#ah"/><use transform="matrix(0.05,0,0,0.05,22.950000000000003,0)" xlink:href="#ai"/><use transform="matrix(0.05,0,0,0.05,28.900000000000002,0)" xlink:href="#ai"/><use transform="matrix(0.05,0,0,0.05,34.85,0)" xlink:href="#af"/><use transform="matrix(0.05,0,0,0.05,44.85,0)" xlink:href="#aj"/><use transform="matrix(0.05,0,0,0.05,54.85,0)" xlink:href="#ae"/><use transform="matrix(0.05,0,0,0.05,59.85,0)" xlink:href="#ak"/><use transform="matrix(0.05,0,0,0.05,70.15,0)" xlink:href="#al"/><use transform="matrix(0.05,0,0,0.05,74.10000000000001,0)" xlink:href="#am"/><use transform="matrix(0.05,0,0,0.05,89.05000000000001,0)" xlink:href="#af"/></g><path fill="#5a5a5a" d="M30 0v-248h33v221h125V0H30" id="an"/><path fill="#5a5a5a" d="M100-194c62-1 85 37 85 99 1 63-27 99-86 99S16-35 15-95c0-66 28-99 85-99zM99-20c44 1 53-31 53-75 0-43-8-75-51-75s-53 32-53 75 10 74 51 75" id="ao"/><path fill="#5a5a5a" d="M96-169c-40 0-48 33-48 73s9 75 48 75c24 0 41-14 43-38l32 2c-6 37-31 61-74 61-59 0-76-41-82-99-10-93 101-131 147-64 4 7 5 14 7 22l-32 3c-4-21-16-35-41-35" id="ap"/><g id="l"><use transform="matrix(0.05,0,0,0.05,0,0)" xlink:href="#an"/><use transform="matrix(0.05,0,0,0.05,10,0)" xlink:href="#ao"/><use transform="matrix(0.05,0,0,0.05,20,0)" xlink:href="#ap"/><use transform="matrix(0.05,0,0,0.05,29,0)" xlink:href="#ab"/><use transform="matrix(0.05,0,0,0.05,39,0)" xlink:href="#aa"/></g><g id="m"><use transform="matrix(0.05,0,0,0.05,0,0)" xlink:href="#ak"/><use transform="matrix(0.05,0,0,0.05,10.3,0)" xlink:href="#al"/><use transform="matrix(0.05,0,0,0.05,14.25,0)" xlink:href="#am"/><use transform="matrix(0.05,0,0,0.05,29.200000000000003,0)" xlink:href="#af"/></g><g id="n"><use transform="matrix(0.05,0,0,0.05,0,0)" xlink:href="#ag"/><use transform="matrix(0.05,0,0,0.05,12.950000000000001,0)" xlink:href="#ah"/><use transform="matrix(0.05,0,0,0.05,22.950000000000003,0)" xlink:href="#ai"/><use transform="matrix(0.05,0,0,0.05,28.900000000000002,0)" xlink:href="#ai"/><use transform="matrix(0.05,0,0,0.05,34.85,0)" xlink:href="#af"/><use transform="matrix(0.05,0,0,0.05,44.85,0)" xlink:href="#aj"/><use transform="matrix(0.05,0,0,0.05,54.85,0)" xlink:href="#ae"/></g><path fill="#303030" d="M127-220V0H93v-220H8v-28h204v28h-85" id="aq"/><g id="o"><use transform="matrix(0.05,0,0,0.05,0,0)" xlink:href="#aq"/><use transform="matrix(0.05,0,0,0.05,10.3,0)" xlink:href="#Q"/><use transform="matrix(0.05,0,0,0.05,14.25,0)" xlink:href="#R"/><use transform="matrix(0.05,0,0,0.05,29.200000000000003,0)" xlink:href="#M"/><use transform="matrix(0.05,0,0,0.05,39.2,0)" xlink:href="#L"/><use transform="matrix(0.05,0,0,0.05,43.150000000000006,0)" xlink:href="#Q"/><use transform="matrix(0.05,0,0,0.05,47.10000000000001,0)" xlink:href="#P"/><use transform="matrix(0.05,0,0,0.05,57.1,0)" xlink:href="#M"/></g><path fill="#5a5a5a" d="M247 0h-39l-15-214-24 57L95 0H56L31-248h35L82-30l101-218h33l16 218 101-218h35" id="ar"/><path fill="#5a5a5a" d="M66-151c12-25 30-51 66-40l-6 26C45-176 58-65 38 0H6l36-190h30" id="as"/><path fill="#5a5a5a" d="M127 0L80-88 50-66 37 0H6l51-261h31L57-100l99-90h39l-93 82L161 0h-34" id="at"/><path fill="#5a5a5a" d="M6 0l50-261h32L37 0H6" id="au"/><g id="p"><use transform="matrix(0.05,0,0,0.05,0,0)" xlink:href="#ar"/><use transform="matrix(0.05,0,0,0.05,16.95,0)" xlink:href="#w"/><use transform="matrix(0.05,0,0,0.05,26.950000000000003,0)" xlink:href="#as"/><use transform="matrix(0.05,0,0,0.05,32.9,0)" xlink:href="#at"/><use transform="matrix(0.05,0,0,0.05,41.9,0)" xlink:href="#au"/><use transform="matrix(0.05,0,0,0.05,45.85,0)" xlink:href="#A"/><use transform="matrix(0.05,0,0,0.05,55.85,0)" xlink:href="#C"/></g><path fill="#5a5a5a" d="M233-177c-1 41-23 64-60 70L243 0h-38l-65-103H63V0H30v-248c88 3 205-21 203 71zM63-129c60-2 137 13 137-47 0-61-80-42-137-45v92" id="av"/><path fill="#5a5a5a" d="M85-194c31 0 48 13 60 33l-1-100h32l1 261h-30c-2-10 0-23-3-31C134-8 116 4 85 4 32 4 16-35 15-94c0-66 23-100 70-100zm9 24c-40 0-46 34-46 75 0 40 6 74 45 74 42 0 51-32 51-76 0-42-9-74-50-73" id="aw"/><path fill="#5a5a5a" d="M177-190C167-65 218 103 67 71c-23-6-38-20-44-43l32-5c15 47 100 32 89-28v-30C133-14 115 1 83 1 29 1 15-40 15-95c0-56 16-97 71-98 29-1 48 16 59 35 1-10 0-23 2-32h30zM94-22c36 0 50-32 50-73 0-42-14-75-50-75-39 0-46 34-46 75s6 73 46 73" id="ax"/><g id="q"><use transform="matrix(0.05,0,0,0.05,0,0)" xlink:href="#av"/><use transform="matrix(0.05,0,0,0.05,12.950000000000001,0)" xlink:href="#af"/><use transform="matrix(0.05,0,0,0.05,22.950000000000003,0)" xlink:href="#aj"/><use transform="matrix(0.05,0,0,0.05,32.95,0)" xlink:href="#aw"/><use transform="matrix(0.05,0,0,0.05,42.95,0)" xlink:href="#af"/><use transform="matrix(0.05,0,0,0.05,52.95,0)" xlink:href="#ai"/><use transform="matrix(0.05,0,0,0.05,58.900000000000006,0)" xlink:href="#al"/><use transform="matrix(0.05,0,0,0.05,62.85,0)" xlink:href="#aj"/><use transform="matrix(0.05,0,0,0.05,72.85000000000001,0)" xlink:href="#ax"/></g><g id="r"><use transform="matrix(0.05,0,0,0.05,0,0)" xlink:href="#ad"/><use transform="matrix(0.05,0,0,0.05,12,0)" xlink:href="#al"/><use transform="matrix(0.05,0,0,0.05,15.949999999999998,0)" xlink:href="#ax"/><use transform="matrix(0.05,0,0,0.05,25.950000000000003,0)" xlink:href="#aj"/><use transform="matrix(0.05,0,0,0.05,35.95,0)" xlink:href="#ab"/><use transform="matrix(0.05,0,0,0.05,45.95,0)" xlink:href="#aa"/></g><path fill="#5a5a5a" d="M205 0l-28-72H64L36 0H1l101-248h38L239 0h-34zm-38-99l-47-123c-12 45-31 82-46 123h93" id="ay"/><g id="s"><use transform="matrix(0.05,0,0,0.05,0,0)" xlink:href="#ay"/><use transform="matrix(0.05,0,0,0.05,12,0)" xlink:href="#aj"/><use transform="matrix(0.05,0,0,0.05,22,0)" xlink:href="#al"/><use transform="matrix(0.05,0,0,0.05,25.950000000000003,0)" xlink:href="#am"/><use transform="matrix(0.05,0,0,0.05,40.9,0)" xlink:href="#ab"/><use transform="matrix(0.05,0,0,0.05,50.9,0)" xlink:href="#ae"/><use transform="matrix(0.05,0,0,0.05,55.900000000000006,0)" xlink:href="#af"/></g><path fill="#5a5a5a" d="M232-93c-1 65-40 97-104 97C67 4 28-28 28-90v-158h33c8 89-33 224 67 224 102 0 64-133 71-224h33v155" id="az"/><path fill="#5a5a5a" d="M115-194c55 1 70 41 70 98S169 2 115 4C84 4 66-9 55-30l1 105H24l-1-265h31l2 30c10-21 28-34 59-34zm-8 174c40 0 45-34 45-75s-6-73-45-74c-42 0-51 32-51 76 0 43 10 73 51 73" id="aA"/><g id="t"><use transform="matrix(0.05,0,0,0.05,0,0)" xlink:href="#az"/><use transform="matrix(0.05,0,0,0.05,12.950000000000001,0)" xlink:href="#aA"/><use transform="matrix(0.05,0,0,0.05,22.950000000000003,0)" xlink:href="#aw"/><use transform="matrix(0.05,0,0,0.05,32.95,0)" xlink:href="#ab"/><use transform="matrix(0.05,0,0,0.05,42.95,0)" xlink:href="#ae"/><use transform="matrix(0.05,0,0,0.05,47.95,0)" xlink:href="#af"/></g><path fill="#5a5a5a" d="M137 0h-34L2-248h35l83 218 83-218h36" id="aB"/><path fill="#5a5a5a" d="M135-143c-3-34-86-38-87 0 15 53 115 12 119 90S17 21 10-45l28-5c4 36 97 45 98 0-10-56-113-15-118-90-4-57 82-63 122-42 12 7 21 19 24 35" id="aC"/><g id="u"><use transform="matrix(0.05,0,0,0.05,0,0)" xlink:href="#aB"/><use transform="matrix(0.05,0,0,0.05,11.65,0)" xlink:href="#al"/><use transform="matrix(0.05,0,0,0.05,15.600000000000001,0)" xlink:href="#aC"/><use transform="matrix(0.05,0,0,0.05,24.6,0)" xlink:href="#ah"/><use transform="matrix(0.05,0,0,0.05,34.6,0)" xlink:href="#ab"/><use transform="matrix(0.05,0,0,0.05,44.6,0)" xlink:href="#aa"/></g></defs></g></svg>