<svg xmlns="http://www.w3.org/2000/svg" xmlns:xlink="http://www.w3.org/1999/xlink" width="982" height="1231"><g transform="translate(0 -220)"><path d="M40 1050h240v60H40z" fill="none"/><use xlink:href="#a" transform="matrix(1,0,0,1,40,1050) translate(49.425 33.6)"/><use xlink:href="#b" transform="matrix(1,0,0,1,40,1050) translate(94.425 33.6)"/><use xlink:href="#c" transform="matrix(1,0,0,1,40,1050) translate(142.375 33.6)"/><path d="M32 550h240v60H32z" fill="none"/><use xlink:href="#d" transform="matrix(1,0,0,1,32,550) translate(41.599999999999994 22.799999999999997)"/><use xlink:href="#e" transform="matrix(1,0,0,1,32,550) translate(128.5 22.799999999999997)"/><use xlink:href="#f" transform="matrix(1,0,0,1,32,550) translate(97.025 44.4)"/><path d="M32 1150h240v60H32z" fill="none"/><use xlink:href="#g" transform="matrix(1,0,0,1,32,1150) translate(61.1 22.799999999999997)"/><use xlink:href="#h" transform="matrix(1,0,0,1,32,1150) translate(99.05000000000001 22.799999999999997)"/><use xlink:href="#i" transform="matrix(1,0,0,1,32,1150) translate(89.575 44.4)"/><path d="M638 460h240v60H638z" fill="none"/><use xlink:href="#g" transform="matrix(1,0,0,1,638,460) translate(60.599999999999994 33.6)"/><use xlink:href="#j" transform="matrix(1,0,0,1,638,460) translate(98.55 33.6)"/><path d="M180 240h160v80H180z" stroke="#989898" stroke-width="2" fill="#cbcbcb"/><use xlink:href="#k" transform="matrix(1,0,0,1,180,240) translate(29.604999999999997 31.9)"/><use xlink:href="#l" transform="matrix(1,0,0,1,180,240) translate(73.505 31.9)"/><use xlink:href="#m" transform="matrix(1,0,0,1,180,240) translate(5.104999999999999 53.5)"/><use xlink:href="#n" transform="matrix(1,0,0,1,180,240) translate(97.95500000000001 53.5)"/><path d="M260 320v1120" fill="none"/><path d="M260 320v19.65m0 19.65v39.3m0 19.65v39.3m0 19.64v39.3m0 19.64v39.3m0 19.65v39.3m0 19.64v39.3m0 19.64v39.3m0 19.65v39.3m0 19.65v39.3m0 19.64v39.3m0 19.65v39.3m0 19.65v39.3m0 19.65v39.3m0 19.64v39.3m0 19.66v39.3m0 19.65v39.3m0 19.66v39.3m0 19.64v39.3m0 19.65V1440" stroke="#969696" stroke-width="2" fill="none"/><path d="M580 240h160v80H580z" stroke="#989898" stroke-width="2" fill="#cbcbcb"/><use xlink:href="#o" transform="matrix(1,0,0,1,580,240) translate(9.130000000000004 31.9)"/><use xlink:href="#l" transform="matrix(1,0,0,1,580,240) translate(93.98 31.9)"/><use xlink:href="#p" transform="matrix(1,0,0,1,580,240) translate(15.804999999999987 53.5)"/><use xlink:href="#n" transform="matrix(1,0,0,1,580,240) translate(87.255 53.5)"/><path d="M660 320v1090" fill="none"/><path d="M660 320v20.2m0 20.17v40.37m0 20.2v40.36m0 20.18v40.37m0 20.2v40.36m0 20.2v40.36m0 20.2v40.36m0 20.18v40.37m0 20.2v40.36m0 20.18v40.4m0 20.17v40.37m0 20.2v40.36m0 20.18v40.37m0 20.2v40.36m0 20.2v40.36m0 20.2v40.36m0 20.18v40.37m0 20.2v40.36m0 20.18v20.2" stroke="#969696" stroke-width="2" fill="none"/><path d="M960 400c0 11.05-8.95 20-20 20s-20-8.95-20-20 8.95-20 20-20 20 8.95 20 20z" stroke="#989898" stroke-width="2"/><path d="M920 400H680" stroke="#969696" stroke-width="2" fill="none"/><path d="M920 400l.04 1H920v-2h.13zM698.58 390.17L681.96 400l16.62 9.83-1 1.72-17.58-10.4V400h-1.96l19.53-11.55z" fill="#969696"/><use xlink:href="#q" transform="matrix(1,0,0,1,716.8,374.4) translate(0 14.4)"/><use xlink:href="#r" transform="matrix(1,0,0,1,716.8,374.4) translate(53.550000000000004 14.4)"/><use xlink:href="#s" transform="matrix(1,0,0,1,716.8,374.4) translate(116.5 14.4)"/><path d="M680 580h240" fill="none"/><path d="M680 580h4m8 0h8m8 0h8m8 0h8m8 0h8m8 0h8m8 0h8m8 0h8m8 0h8m8 0h8m8 0h8m8 0h8m8 0h8m8 0h8m8 0h8m8 0h4" stroke="#969696" stroke-width="2" fill="none"/><path d="M920.14 578.92L920 580l.04 1.14-17.6 10.4-1.03-1.7 16.63-9.84-16.62-9.83 1.03-1.72z" fill="#969696"/><use xlink:href="#t" transform="matrix(1,0,0,1,771.025,583.9999999999999) translate(0 14.4)"/><path d="M960 580c0 11.05-8.95 20-20 20s-20-8.95-20-20 8.95-20 20-20 20 8.95 20 20z" stroke="#989898" stroke-width="2"/><path d="M640 400h40v200h-40z" stroke="#989898" stroke-width="2" fill="#cbcbcb"/><path d="M640 600H460M478.08 589.3L460 600l18.08 10.7" stroke="#969696" stroke-width="2" fill="none"/><use xlink:href="#u" transform="matrix(1,0,0,1,501.925,604.0000000000001) translate(0 14.4)"/><use xlink:href="#v" transform="matrix(1,0,0,1,501.925,604.0000000000001) translate(47.95 14.4)"/><path d="M360 480h160v80H360z" stroke="#989898" stroke-width="2" fill="#cbcbcb"/><use xlink:href="#w" transform="matrix(1,0,0,1,360,480) translate(24.529999999999994 31.9)"/><use xlink:href="#x" transform="matrix(1,0,0,1,360,480) translate(95.48 31.9)"/><use xlink:href="#y" transform="matrix(1,0,0,1,360,480) translate(59.005 53.5)"/><path d="M440 560v560" fill="none"/><path d="M440 560v20.74m0 20.74v41.48m0 20.74v41.5m0 20.73v41.48m0 20.75v41.48m0 20.74v41.48m0 20.74v41.47m0 20.74v41.5m0 20.74v41.48m0 20.74V1120" stroke="#969696" stroke-width="2" fill="none"/><path d="M441 1120.13l-1-.13-1 .04v-.04h2z" fill="#969696"/><path d="M638 760h240v60H638z" fill="none"/><use xlink:href="#g" transform="matrix(1,0,0,1,638,760) translate(60.599999999999994 33.6)"/><use xlink:href="#j" transform="matrix(1,0,0,1,638,760) translate(98.55 33.6)"/><path d="M962 700c0 11.05-8.95 20-20 20s-20-8.95-20-20 8.95-20 20-20 20 8.95 20 20z" stroke="#989898" stroke-width="2"/><path d="M922 700H678" stroke="#969696" stroke-width="2" fill="none"/><path d="M922 700l.04 1H922v-2h.13zM696.58 690.17L679.96 700l16.62 9.83-1 1.72-17.58-10.4V700h-1.96l19.53-11.55z" fill="#969696"/><use xlink:href="#q" transform="matrix(1,0,0,1,716.8,674.4000000000001) translate(0 14.4)"/><use xlink:href="#r" transform="matrix(1,0,0,1,716.8,674.4000000000001) translate(53.550000000000004 14.4)"/><use xlink:href="#s" transform="matrix(1,0,0,1,716.8,674.4000000000001) translate(116.5 14.4)"/><path d="M672 880h250" fill="none"/><path d="M672 880h3.9m7.82 0h7.8m7.82 0h7.82m7.8 0h7.82m7.8 0h7.83m7.82 0h7.8m7.82 0h7.82m7.8 0h7.82m7.8 0h7.83m7.82 0h7.8m7.82 0h7.82m7.8 0h7.82m7.8 0h7.83m7.82 0h7.8m7.82 0h7.82m7.8 0h7.82m7.8 0H922" stroke="#969696" stroke-width="2" fill="none"/><path d="M922.14 878.92L922 880l.04 1.14-17.6 10.4-1.02-1.7 16.62-9.84-16.62-9.83 1-1.72z" fill="#969696"/><use xlink:href="#t" transform="matrix(1,0,0,1,768.025,884.0000000000001) translate(0 14.4)"/><path d="M962 880c0 11.05-8.95 20-20 20s-20-8.95-20-20 8.95-20 20-20 20 8.95 20 20z" stroke="#989898" stroke-width="2"/><path d="M638 700h40v200h-40z" stroke="#989898" stroke-width="2" fill="#cbcbcb"/><path d="M640 900H460M478.08 889.3L460 900l18.08 10.7" stroke="#969696" stroke-width="2" fill="none"/><use xlink:href="#u" transform="matrix(1,0,0,1,501.925,904) translate(0 14.4)"/><use xlink:href="#v" transform="matrix(1,0,0,1,501.925,904) translate(47.95 14.4)"/><path d="M242 380h40v460h-40zM240 1040h40v80h-40z" stroke="#989898" stroke-width="2" fill="#cbcbcb"/><path d="M280 1052.9h80v-.38h80" stroke="#969696" stroke-width="2" fill="none"/><path d="M421.92 1063.2l18.08-10.68-18.08-10.7" stroke="#969696" stroke-width="2" fill="none"/><use xlink:href="#z" transform="matrix(1,0,0,1,339.98003123165637,1026.9257518976683) translate(0 14.4)"/><path d="M460 1140c0 11.05-8.95 20-20 20s-20-8.95-20-20 8.95-20 20-20 20 8.95 20 20z" stroke="#989898" stroke-width="2" fill="#cbcbcb"/><path d="M425.86 1125.86l28.28 28.28m0-28.28l-28.28 28.28" stroke="#989898" stroke-width="2" fill="none"/><path d="M420 600h40v30h-40zM420 900h40v30h-40z" stroke="#989898" stroke-width="2" fill="#cbcbcb"/><path d="M440 1093.15h-20v3.22H280" fill="none"/><path d="M440 1093.15h-4.08m-8.16 0H420v.4m-5.35 2.82h-8.16m-8.17 0h-8.16m-8.16 0h-8.15m-8.16 0h-8.17m-8.16 0h-8.16m-8.15 0h-8.17m-8.16 0h-8.16m-8.16 0h-8.16m-8.16 0H280" stroke="#969696" stroke-width="2" fill="none"/><path d="M298.58 1086.54l-16.62 9.83 16.62 9.83-1 1.72-17.58-10.4v-2.3l17.57-10.4z" fill="#969696"/><g><use xlink:href="#A" transform="matrix(1,0,0,1,339.1680790030757,1100.3688063290588) translate(0 14.4)"/></g><path d="M80 1020c0 11.05-8.95 20-20 20s-20-8.95-20-20 8.95-20 20-20 20 8.95 20 20z" stroke="#989898" stroke-width="2"/><path d="M80 1020h90v.35h90" stroke="#969696" stroke-width="2" fill="none"/><path d="M80 1021h-.13l.13-1-.04-1H80z" fill="#969696"/><path d="M241.92 1031.04l18.08-10.7-18.08-10.68" stroke="#969696" stroke-width="2" fill="none"/><g><use xlink:href="#B" transform="matrix(1,0,0,1,97.10655934756201,994.4004970477957) translate(0 14.4)"/><use xlink:href="#C" transform="matrix(1,0,0,1,97.10655934756201,994.4004970477957) translate(87.85000000000001 14.4)"/></g><path d="M240 1140h40v80h-40zM240 1240h40v80h-40z" stroke="#989898" stroke-width="2" fill="#cbcbcb"/><path d="M48 1240h208v60H48z" fill="none"/><g><use xlink:href="#D" transform="matrix(1,0,0,1,48,1240) translate(44.074999999999996 22.799999999999997)"/><use xlink:href="#e" transform="matrix(1,0,0,1,48,1240) translate(94.025 22.799999999999997)"/><use xlink:href="#f" transform="matrix(1,0,0,1,48,1240) translate(81.025 44.4)"/></g><path d="M20 940h185v20l-10 10H20z" fill="#fff"/><path d="M20 940h460v440H20z" stroke="#989898" stroke-width="2" fill="none"/><path d="M205 940v20l-10 10H20" stroke="#989898" stroke-width="2" fill="#fff"/><g><use xlink:href="#B" transform="matrix(1,0,0,1,28,940) translate(0 18.6)"/><use xlink:href="#E" transform="matrix(1,0,0,1,28,940) translate(87.85000000000001 18.6)"/></g><defs><path fill="#5a5a5a" d="M185-189c-5-48-123-54-124 2 14 75 158 14 163 119 3 78-121 87-175 55-17-10-28-26-33-46l33-7c5 56 141 63 141-1 0-78-155-14-162-118-5-82 145-84 179-34 5 7 8 16 11 25" id="F"/><path fill="#5a5a5a" d="M179-190L93 31C79 59 56 82 12 73V49c39 6 53-20 64-50L1-190h34L92-34l54-156h33" id="G"/><path fill="#5a5a5a" d="M117-194c89-4 53 116 60 194h-32v-121c0-31-8-49-39-48C34-167 62-67 57 0H25l-1-190h30c1 10-1 24 2 32 11-22 29-35 61-36" id="H"/><path fill="#5a5a5a" d="M96-169c-40 0-48 33-48 73s9 75 48 75c24 0 41-14 43-38l32 2c-6 37-31 61-74 61-59 0-76-41-82-99-10-93 101-131 147-64 4 7 5 14 7 22l-32 3c-4-21-16-35-41-35" id="I"/><g id="a"><use transform="matrix(0.05,0,0,0.05,0,0)" xlink:href="#F"/><use transform="matrix(0.05,0,0,0.05,12,0)" xlink:href="#G"/><use transform="matrix(0.05,0,0,0.05,21,0)" xlink:href="#H"/><use transform="matrix(0.05,0,0,0.05,31,0)" xlink:href="#I"/></g><path fill="#5a5a5a" d="M30 0v-248h33v221h125V0H30" id="J"/><path fill="#5a5a5a" d="M100-194c62-1 85 37 85 99 1 63-27 99-86 99S16-35 15-95c0-66 28-99 85-99zM99-20c44 1 53-31 53-75 0-43-8-75-51-75s-53 32-53 75 10 74 51 75" id="K"/><path fill="#5a5a5a" d="M141-36C126-15 110 5 73 4 37 3 15-17 15-53c-1-64 63-63 125-63 3-35-9-54-41-54-24 1-41 7-42 31l-33-3c5-37 33-52 76-52 45 0 72 20 72 64v82c-1 20 7 32 28 27v20c-31 9-61-2-59-35zM48-53c0 20 12 33 32 33 41-3 63-29 60-74-43 2-92-5-92 41" id="L"/><path fill="#5a5a5a" d="M24 0v-261h32V0H24" id="M"/><g id="b"><use transform="matrix(0.05,0,0,0.05,0,0)" xlink:href="#J"/><use transform="matrix(0.05,0,0,0.05,10,0)" xlink:href="#K"/><use transform="matrix(0.05,0,0,0.05,20,0)" xlink:href="#I"/><use transform="matrix(0.05,0,0,0.05,29,0)" xlink:href="#L"/><use transform="matrix(0.05,0,0,0.05,39,0)" xlink:href="#M"/></g><path fill="#5a5a5a" d="M127-220V0H93v-220H8v-28h204v28h-85" id="N"/><path fill="#5a5a5a" d="M24-231v-30h32v30H24zM24 0v-190h32V0H24" id="O"/><path fill="#5a5a5a" d="M210-169c-67 3-38 105-44 169h-31v-121c0-29-5-50-35-48C34-165 62-65 56 0H25l-1-190h30c1 10-1 24 2 32 10-44 99-50 107 0 11-21 27-35 58-36 85-2 47 119 55 194h-31v-121c0-29-5-49-35-48" id="P"/><path fill="#5a5a5a" d="M100-194c63 0 86 42 84 106H49c0 40 14 67 53 68 26 1 43-12 49-29l28 8c-11 28-37 45-77 45C44 4 14-33 15-96c1-61 26-98 85-98zm52 81c6-60-76-77-97-28-3 7-6 17-6 28h103" id="Q"/><path fill="#5a5a5a" d="M135-143c-3-34-86-38-87 0 15 53 115 12 119 90S17 21 10-45l28-5c4 36 97 45 98 0-10-56-113-15-118-90-4-57 82-63 122-42 12 7 21 19 24 35" id="R"/><g id="c"><use transform="matrix(0.05,0,0,0.05,0,0)" xlink:href="#N"/><use transform="matrix(0.05,0,0,0.05,10.3,0)" xlink:href="#O"/><use transform="matrix(0.05,0,0,0.05,14.25,0)" xlink:href="#P"/><use transform="matrix(0.05,0,0,0.05,29.200000000000003,0)" xlink:href="#Q"/><use transform="matrix(0.05,0,0,0.05,39.2,0)" xlink:href="#R"/></g><path fill="#5a5a5a" d="M30-248c118-7 216 8 213 122C240-48 200 0 122 0H30v-248zM63-27c89 8 146-16 146-99s-60-101-146-95v194" id="S"/><path fill="#5a5a5a" d="M84 4C-5 8 30-112 23-190h32v120c0 31 7 50 39 49 72-2 45-101 50-169h31l1 190h-30c-1-10 1-25-2-33-11 22-28 36-60 37" id="T"/><path fill="#5a5a5a" d="M59-47c-2 24 18 29 38 22v24C64 9 27 4 27-40v-127H5v-23h24l9-43h21v43h35v23H59v120" id="U"/><g id="d"><use transform="matrix(0.05,0,0,0.05,0,0)" xlink:href="#S"/><use transform="matrix(0.05,0,0,0.05,12.950000000000001,0)" xlink:href="#K"/><use transform="matrix(0.05,0,0,0.05,22.950000000000003,0)" xlink:href="#I"/><use transform="matrix(0.05,0,0,0.05,31.950000000000003,0)" xlink:href="#T"/><use transform="matrix(0.05,0,0,0.05,41.95,0)" xlink:href="#P"/><use transform="matrix(0.05,0,0,0.05,56.900000000000006,0)" xlink:href="#Q"/><use transform="matrix(0.05,0,0,0.05,66.9,0)" xlink:href="#H"/><use transform="matrix(0.05,0,0,0.05,76.9,0)" xlink:href="#U"/></g><path fill="#5a5a5a" d="M101-234c-31-9-42 10-38 44h38v23H63V0H32v-167H5v-23h27c-7-52 17-82 69-68v24" id="V"/><g id="e"><use transform="matrix(0.05,0,0,0.05,0,0)" xlink:href="#J"/><use transform="matrix(0.05,0,0,0.05,10,0)" xlink:href="#O"/><use transform="matrix(0.05,0,0,0.05,13.949999999999998,0)" xlink:href="#V"/><use transform="matrix(0.05,0,0,0.05,18.95,0)" xlink:href="#Q"/><use transform="matrix(0.05,0,0,0.05,28.950000000000003,0)" xlink:href="#I"/><use transform="matrix(0.05,0,0,0.05,37.95,0)" xlink:href="#G"/><use transform="matrix(0.05,0,0,0.05,46.95,0)" xlink:href="#I"/><use transform="matrix(0.05,0,0,0.05,55.95,0)" xlink:href="#M"/><use transform="matrix(0.05,0,0,0.05,59.900000000000006,0)" xlink:href="#Q"/></g><path fill="#5a5a5a" d="M143 0L79-87 56-68V0H24v-261h32v163l83-92h37l-77 82L181 0h-38" id="W"/><g id="f"><use transform="matrix(0.05,0,0,0.05,0,0)" xlink:href="#N"/><use transform="matrix(0.05,0,0,0.05,8.950000000000001,0)" xlink:href="#L"/><use transform="matrix(0.05,0,0,0.05,18.950000000000003,0)" xlink:href="#R"/><use transform="matrix(0.05,0,0,0.05,27.950000000000003,0)" xlink:href="#W"/><use transform="matrix(0.05,0,0,0.05,36.95,0)" xlink:href="#R"/></g><path fill="#5a5a5a" d="M233-177c-1 41-23 64-60 70L243 0h-38l-65-103H63V0H30v-248c88 3 205-21 203 71zM63-129c60-2 137 13 137-47 0-61-80-42-137-45v92" id="X"/><g id="g"><use transform="matrix(0.05,0,0,0.05,0,0)" xlink:href="#X"/><use transform="matrix(0.05,0,0,0.05,12.950000000000001,0)" xlink:href="#T"/><use transform="matrix(0.05,0,0,0.05,22.950000000000003,0)" xlink:href="#H"/></g><path fill="#5a5a5a" d="M205 0l-28-72H64L36 0H1l101-248h38L239 0h-34zm-38-99l-47-123c-12 45-31 82-46 123h93" id="Y"/><g id="h"><use transform="matrix(0.05,0,0,0.05,0,0)" xlink:href="#Y"/><use transform="matrix(0.05,0,0,0.05,12,0)" xlink:href="#H"/><use transform="matrix(0.05,0,0,0.05,22,0)" xlink:href="#O"/><use transform="matrix(0.05,0,0,0.05,25.950000000000003,0)" xlink:href="#P"/><use transform="matrix(0.05,0,0,0.05,40.9,0)" xlink:href="#L"/><use transform="matrix(0.05,0,0,0.05,50.9,0)" xlink:href="#U"/><use transform="matrix(0.05,0,0,0.05,55.900000000000006,0)" xlink:href="#O"/><use transform="matrix(0.05,0,0,0.05,59.85,0)" xlink:href="#K"/><use transform="matrix(0.05,0,0,0.05,69.85,0)" xlink:href="#H"/></g><path fill="#5a5a5a" d="M63-220v92h138v28H63V0H30v-248h175v28H63" id="Z"/><path fill="#5a5a5a" d="M114-163C36-179 61-72 57 0H25l-1-190h30c1 12-1 29 2 39 6-27 23-49 58-41v29" id="aa"/><g id="i"><use transform="matrix(0.05,0,0,0.05,0,0)" xlink:href="#Z"/><use transform="matrix(0.05,0,0,0.05,10.950000000000001,0)" xlink:href="#aa"/><use transform="matrix(0.05,0,0,0.05,16.900000000000002,0)" xlink:href="#L"/><use transform="matrix(0.05,0,0,0.05,26.900000000000002,0)" xlink:href="#P"/><use transform="matrix(0.05,0,0,0.05,41.85,0)" xlink:href="#Q"/><use transform="matrix(0.05,0,0,0.05,51.85,0)" xlink:href="#R"/></g><g id="j"><use transform="matrix(0.05,0,0,0.05,0,0)" xlink:href="#Y"/><use transform="matrix(0.05,0,0,0.05,12,0)" xlink:href="#H"/><use transform="matrix(0.05,0,0,0.05,22,0)" xlink:href="#O"/><use transform="matrix(0.05,0,0,0.05,25.950000000000003,0)" xlink:href="#P"/><use transform="matrix(0.05,0,0,0.05,40.9,0)" xlink:href="#L"/><use transform="matrix(0.05,0,0,0.05,50.9,0)" xlink:href="#U"/><use transform="matrix(0.05,0,0,0.05,55.900000000000006,0)" xlink:href="#K"/><use transform="matrix(0.05,0,0,0.05,65.9,0)" xlink:href="#aa"/><use transform="matrix(0.05,0,0,0.05,71.85000000000001,0)" xlink:href="#R"/></g><path fill="#5a5a5a" d="M240 0l2-218c-23 76-54 145-80 218h-23L58-218 59 0H30v-248h44l77 211c21-75 51-140 76-211h43V0h-30" id="ab"/><g id="k"><use transform="matrix(0.05,0,0,0.05,0,0)" xlink:href="#ab"/><use transform="matrix(0.05,0,0,0.05,14.950000000000001,0)" xlink:href="#L"/><use transform="matrix(0.05,0,0,0.05,24.950000000000003,0)" xlink:href="#O"/><use transform="matrix(0.05,0,0,0.05,28.900000000000002,0)" xlink:href="#H"/></g><path fill="#5a5a5a" d="M106-169C34-169 62-67 57 0H25v-261h32l-1 103c12-21 28-36 61-36 89 0 53 116 60 194h-32v-121c2-32-8-49-39-48" id="ac"/><path fill="#5a5a5a" d="M85-194c31 0 48 13 60 33l-1-100h32l1 261h-30c-2-10 0-23-3-31C134-8 116 4 85 4 32 4 16-35 15-94c0-66 23-100 70-100zm9 24c-40 0-46 34-46 75 0 40 6 74 45 74 42 0 51-32 51-76 0-42-9-74-50-73" id="ad"/><g id="l"><use transform="matrix(0.05,0,0,0.05,0,0)" xlink:href="#N"/><use transform="matrix(0.05,0,0,0.05,10.950000000000001,0)" xlink:href="#ac"/><use transform="matrix(0.05,0,0,0.05,20.950000000000003,0)" xlink:href="#aa"/><use transform="matrix(0.05,0,0,0.05,26.900000000000002,0)" xlink:href="#Q"/><use transform="matrix(0.05,0,0,0.05,36.900000000000006,0)" xlink:href="#L"/><use transform="matrix(0.05,0,0,0.05,46.900000000000006,0)" xlink:href="#ad"/></g><path fill="#5a5a5a" d="M87 75C49 33 22-17 22-94c0-76 28-126 65-167h31c-38 41-64 92-64 168S80 34 118 75H87" id="ae"/><g id="m"><use transform="matrix(0.05,0,0,0.05,0,0)" xlink:href="#ae"/><use transform="matrix(0.05,0,0,0.05,5.95,0)" xlink:href="#S"/><use transform="matrix(0.05,0,0,0.05,18.900000000000002,0)" xlink:href="#K"/><use transform="matrix(0.05,0,0,0.05,28.900000000000002,0)" xlink:href="#I"/><use transform="matrix(0.05,0,0,0.05,37.900000000000006,0)" xlink:href="#T"/><use transform="matrix(0.05,0,0,0.05,47.900000000000006,0)" xlink:href="#P"/><use transform="matrix(0.05,0,0,0.05,62.85,0)" xlink:href="#Q"/><use transform="matrix(0.05,0,0,0.05,72.85000000000001,0)" xlink:href="#H"/><use transform="matrix(0.05,0,0,0.05,82.85000000000001,0)" xlink:href="#U"/></g><path fill="#5a5a5a" d="M115-194c55 1 70 41 70 98S169 2 115 4C84 4 66-9 55-30l1 105H24l-1-265h31l2 30c10-21 28-34 59-34zm-8 174c40 0 45-34 45-75s-6-73-45-74c-42 0-51 32-51 76 0 43 10 73 51 73" id="af"/><path fill="#5a5a5a" d="M33-261c38 41 65 92 65 168S71 34 33 75H2C39 34 66-17 66-93S39-220 2-261h31" id="ag"/><g id="n"><use transform="matrix(0.05,0,0,0.05,0,0)" xlink:href="#F"/><use transform="matrix(0.05,0,0,0.05,12,0)" xlink:href="#I"/><use transform="matrix(0.05,0,0,0.05,21,0)" xlink:href="#K"/><use transform="matrix(0.05,0,0,0.05,31,0)" xlink:href="#af"/><use transform="matrix(0.05,0,0,0.05,41,0)" xlink:href="#Q"/><use transform="matrix(0.05,0,0,0.05,51,0)" xlink:href="#ag"/></g><g id="o"><use transform="matrix(0.05,0,0,0.05,0,0)" xlink:href="#Y"/><use transform="matrix(0.05,0,0,0.05,12,0)" xlink:href="#H"/><use transform="matrix(0.05,0,0,0.05,22,0)" xlink:href="#O"/><use transform="matrix(0.05,0,0,0.05,25.950000000000003,0)" xlink:href="#P"/><use transform="matrix(0.05,0,0,0.05,40.9,0)" xlink:href="#L"/><use transform="matrix(0.05,0,0,0.05,50.9,0)" xlink:href="#U"/><use transform="matrix(0.05,0,0,0.05,55.900000000000006,0)" xlink:href="#O"/><use transform="matrix(0.05,0,0,0.05,59.85,0)" xlink:href="#K"/><use transform="matrix(0.05,0,0,0.05,69.85,0)" xlink:href="#H"/></g><path fill="#5a5a5a" d="M266 0h-40l-56-210L115 0H75L2-248h35L96-30l15-64 43-154h32l59 218 59-218h35" id="ah"/><g id="p"><use transform="matrix(0.05,0,0,0.05,0,0)" xlink:href="#ae"/><use transform="matrix(0.05,0,0,0.05,5.95,0)" xlink:href="#ah"/><use transform="matrix(0.05,0,0,0.05,22.55,0)" xlink:href="#K"/><use transform="matrix(0.05,0,0,0.05,32.55,0)" xlink:href="#aa"/><use transform="matrix(0.05,0,0,0.05,38.5,0)" xlink:href="#W"/><use transform="matrix(0.05,0,0,0.05,47.5,0)" xlink:href="#M"/><use transform="matrix(0.05,0,0,0.05,51.45,0)" xlink:href="#Q"/><use transform="matrix(0.05,0,0,0.05,61.45,0)" xlink:href="#U"/></g><path fill="#5a5a5a" d="M137 0h-34L2-248h35l83 218 83-218h36" id="ai"/><g id="q"><use transform="matrix(0.05,0,0,0.05,0,0)" xlink:href="#ai"/><use transform="matrix(0.05,0,0,0.05,11.65,0)" xlink:href="#O"/><use transform="matrix(0.05,0,0,0.05,15.600000000000001,0)" xlink:href="#R"/><use transform="matrix(0.05,0,0,0.05,24.6,0)" xlink:href="#T"/><use transform="matrix(0.05,0,0,0.05,34.6,0)" xlink:href="#L"/><use transform="matrix(0.05,0,0,0.05,44.6,0)" xlink:href="#M"/></g><path fill="#5a5a5a" d="M232-93c-1 65-40 97-104 97C67 4 28-28 28-90v-158h33c8 89-33 224 67 224 102 0 64-133 71-224h33v155" id="aj"/><g id="r"><use transform="matrix(0.05,0,0,0.05,0,0)" xlink:href="#aj"/><use transform="matrix(0.05,0,0,0.05,12.950000000000001,0)" xlink:href="#af"/><use transform="matrix(0.05,0,0,0.05,22.950000000000003,0)" xlink:href="#ad"/><use transform="matrix(0.05,0,0,0.05,32.95,0)" xlink:href="#L"/><use transform="matrix(0.05,0,0,0.05,42.95,0)" xlink:href="#U"/><use transform="matrix(0.05,0,0,0.05,47.95,0)" xlink:href="#Q"/></g><path fill="#5a5a5a" d="M177-190C167-65 218 103 67 71c-23-6-38-20-44-43l32-5c15 47 100 32 89-28v-30C133-14 115 1 83 1 29 1 15-40 15-95c0-56 16-97 71-98 29-1 48 16 59 35 1-10 0-23 2-32h30zM94-22c36 0 50-32 50-73 0-42-14-75-50-75-39 0-46 34-46 75s6 73 46 73" id="ak"/><g id="s"><use transform="matrix(0.05,0,0,0.05,0,0)" xlink:href="#F"/><use transform="matrix(0.05,0,0,0.05,12,0)" xlink:href="#O"/><use transform="matrix(0.05,0,0,0.05,15.949999999999998,0)" xlink:href="#ak"/><use transform="matrix(0.05,0,0,0.05,25.950000000000003,0)" xlink:href="#H"/><use transform="matrix(0.05,0,0,0.05,35.95,0)" xlink:href="#L"/><use transform="matrix(0.05,0,0,0.05,45.95,0)" xlink:href="#M"/></g><g id="t"><use transform="matrix(0.05,0,0,0.05,0,0)" xlink:href="#aj"/><use transform="matrix(0.05,0,0,0.05,12.950000000000001,0)" xlink:href="#af"/><use transform="matrix(0.05,0,0,0.05,22.950000000000003,0)" xlink:href="#ad"/><use transform="matrix(0.05,0,0,0.05,32.95,0)" xlink:href="#L"/><use transform="matrix(0.05,0,0,0.05,42.95,0)" xlink:href="#U"/><use transform="matrix(0.05,0,0,0.05,47.95,0)" xlink:href="#Q"/></g><g id="u"><use transform="matrix(0.05,0,0,0.05,0,0)" xlink:href="#J"/><use transform="matrix(0.05,0,0,0.05,10,0)" xlink:href="#K"/><use transform="matrix(0.05,0,0,0.05,20,0)" xlink:href="#I"/><use transform="matrix(0.05,0,0,0.05,29,0)" xlink:href="#L"/><use transform="matrix(0.05,0,0,0.05,39,0)" xlink:href="#M"/></g><g id="v"><use transform="matrix(0.05,0,0,0.05,0,0)" xlink:href="#N"/><use transform="matrix(0.05,0,0,0.05,10.3,0)" xlink:href="#O"/><use transform="matrix(0.05,0,0,0.05,14.25,0)" xlink:href="#P"/><use transform="matrix(0.05,0,0,0.05,29.200000000000003,0)" xlink:href="#Q"/><use transform="matrix(0.05,0,0,0.05,39.2,0)" xlink:href="#R"/></g><path fill="#5a5a5a" d="M30-248c87 1 191-15 191 75 0 78-77 80-158 76V0H30v-248zm33 125c57 0 124 11 124-50 0-59-68-47-124-48v98" id="al"/><g id="w"><use transform="matrix(0.05,0,0,0.05,0,0)" xlink:href="#al"/><use transform="matrix(0.05,0,0,0.05,12,0)" xlink:href="#Q"/><use transform="matrix(0.05,0,0,0.05,22,0)" xlink:href="#H"/><use transform="matrix(0.05,0,0,0.05,32,0)" xlink:href="#ad"/><use transform="matrix(0.05,0,0,0.05,42,0)" xlink:href="#O"/><use transform="matrix(0.05,0,0,0.05,45.95,0)" xlink:href="#H"/><use transform="matrix(0.05,0,0,0.05,55.95,0)" xlink:href="#ak"/></g><g id="x"><use transform="matrix(0.05,0,0,0.05,0,0)" xlink:href="#F"/><use transform="matrix(0.05,0,0,0.05,12,0)" xlink:href="#G"/><use transform="matrix(0.05,0,0,0.05,21,0)" xlink:href="#H"/><use transform="matrix(0.05,0,0,0.05,31,0)" xlink:href="#I"/></g><g id="y"><use transform="matrix(0.05,0,0,0.05,0,0)" xlink:href="#F"/><use transform="matrix(0.05,0,0,0.05,12,0)" xlink:href="#U"/><use transform="matrix(0.05,0,0,0.05,17,0)" xlink:href="#L"/><use transform="matrix(0.05,0,0,0.05,27,0)" xlink:href="#U"/><use transform="matrix(0.05,0,0,0.05,32,0)" xlink:href="#Q"/></g><g id="z"><use transform="matrix(0.05,0,0,0.05,0,0)" xlink:href="#F"/><use transform="matrix(0.05,0,0,0.05,12,0)" xlink:href="#G"/><use transform="matrix(0.05,0,0,0.05,21,0)" xlink:href="#H"/><use transform="matrix(0.05,0,0,0.05,31,0)" xlink:href="#I"/></g><g id="A"><use transform="matrix(0.05,0,0,0.05,0,0)" xlink:href="#F"/><use transform="matrix(0.05,0,0,0.05,12,0)" xlink:href="#U"/><use transform="matrix(0.05,0,0,0.05,17,0)" xlink:href="#L"/><use transform="matrix(0.05,0,0,0.05,27,0)" xlink:href="#U"/><use transform="matrix(0.05,0,0,0.05,32,0)" xlink:href="#Q"/></g><g id="B"><use transform="matrix(0.05,0,0,0.05,0,0)" xlink:href="#X"/><use transform="matrix(0.05,0,0,0.05,12.950000000000001,0)" xlink:href="#Q"/><use transform="matrix(0.05,0,0,0.05,22.950000000000003,0)" xlink:href="#H"/><use transform="matrix(0.05,0,0,0.05,32.95,0)" xlink:href="#ad"/><use transform="matrix(0.05,0,0,0.05,42.95,0)" xlink:href="#Q"/><use transform="matrix(0.05,0,0,0.05,52.95,0)" xlink:href="#aa"/><use transform="matrix(0.05,0,0,0.05,58.900000000000006,0)" xlink:href="#O"/><use transform="matrix(0.05,0,0,0.05,62.85,0)" xlink:href="#H"/><use transform="matrix(0.05,0,0,0.05,72.85000000000001,0)" xlink:href="#ak"/></g><g id="C"><use transform="matrix(0.05,0,0,0.05,0,0)" xlink:href="#aj"/><use transform="matrix(0.05,0,0,0.05,12.950000000000001,0)" xlink:href="#af"/><use transform="matrix(0.05,0,0,0.05,22.950000000000003,0)" xlink:href="#ad"/><use transform="matrix(0.05,0,0,0.05,32.95,0)" xlink:href="#L"/><use transform="matrix(0.05,0,0,0.05,42.95,0)" xlink:href="#U"/><use transform="matrix(0.05,0,0,0.05,47.95,0)" xlink:href="#Q"/></g><path fill="#5a5a5a" d="M140-251c81 0 123 46 123 126C263-46 219 4 140 4 59 4 17-45 17-125s42-126 123-126zm0 227c63 0 89-41 89-101s-29-99-89-99c-61 0-89 39-89 99S79-25 140-24" id="am"/><g id="D"><use transform="matrix(0.05,0,0,0.05,0,0)" xlink:href="#am"/><use transform="matrix(0.05,0,0,0.05,14,0)" xlink:href="#U"/><use transform="matrix(0.05,0,0,0.05,19,0)" xlink:href="#ac"/><use transform="matrix(0.05,0,0,0.05,29,0)" xlink:href="#Q"/><use transform="matrix(0.05,0,0,0.05,39,0)" xlink:href="#aa"/></g><g id="E"><use transform="matrix(0.05,0,0,0.05,0,0)" xlink:href="#J"/><use transform="matrix(0.05,0,0,0.05,10,0)" xlink:href="#K"/><use transform="matrix(0.05,0,0,0.05,20,0)" xlink:href="#K"/><use transform="matrix(0.05,0,0,0.05,30,0)" xlink:href="#af"/></g></defs></g></svg>